<svg width="2008" height="2088" xmlns="http://www.w3.org/2000/svg" xmlns:xlink="http://www.w3.org/1999/xlink" xml:space="preserve" overflow="hidden"><defs><clipPath id="clip0"><rect x="1784" y="-35" width="2008" height="2088"/></clipPath></defs><g clip-path="url(#clip0)" transform="translate(-1784 35)"><path d="M2040.25-28.091C2027.83-24.0749 2016.91-19.9715 2016-18.9739 2015.08-17.9766 2015.26 34.9068 2016.39 98.5449L2018.46 214.249 2001.38 251.647 1984.31 289.043 1966.74 296.124C1931.59 310.294 1890.66 344.181 1867.9 377.959 1855.89 395.774 1841.49 425.012 1835.09 444.57 1832.34 452.955 1826.45 465.206 1821.99 471.794 1805 496.889 1793.07 527.313 1786.97 561.091 1782.58 585.386 1783.15 642.201 1788.06 668.901 1796.4 714.289 1815.79 763.222 1839.84 799.579 1860.63 831.016 1897.17 865.358 1924.49 879.131 1929.88 881.849 1941.61 890.807 1950.54 899.038 1968.68 915.743 1992.02 932.489 2013.62 944.285L2027.98 952.13 2028.57 987.198 2029.17 1022.27 2014.66 1025.91C1999.36 1029.75 1989.1 1034.2 1982.77 1039.76 1979.79 1042.36 1978.96 1046.58 1978.96 1058.94 1978.96 1073.46 1979.43 1075.15 1984.7 1079.3 1990.89 1084.16 2015.48 1092.52 2023.61 1092.52 2028.58 1092.52 2028.59 1092.59 2029.86 1134.44 2030.56 1157.5 2031.63 1212.35 2032.26 1256.33L2033.39 1336.29 2024.15 1338.68C1952.29 1357.27 1899.36 1372.66 1887.63 1378.38 1870.09 1386.95 1843.74 1412.31 1832.78 1431.19 1804.91 1479.2 1794.66 1538.97 1803.56 1601.55 1814 1674.99 1843.99 1737.66 1891.16 1784.62 1910.95 1804.32 1911.42 1805.03 1910.15 1812.98L1908.85 1821.13 1925.26 1830.52C1951.7 1845.64 1969.63 1851 1997.48 1852.08 2010.66 1852.6 2025.61 1852.05 2030.7 1850.88L2039.96 1848.73 2039.99 1867.56C2040.01 1877.91 2040.9 1887.76 2041.96 1889.44 2043.22 1891.43 2155.04 1917.22 2360.55 1962.93 2534.71 2001.67 2696.91 2037.78 2721 2043.18 2745.1 2048.58 2769.42 2053 2775.05 2053 2785.56 2053 2836.97 2041.05 2840.24 2037.85 2841.24 2036.87 2840.89 1946.72 2839.45 1837.51 2838.01 1728.3 2837.31 1638.48 2837.89 1637.9 2838.47 1637.32 2853.04 1632.85 2870.27 1627.98 2910.74 1616.52 2927.86 1607.62 2947.35 1587.91 2972.85 1562.12 2991.95 1521.97 3000.08 1477.07 3004.88 1450.56 3004.77 1396.86 2999.86 1369.12 2989.6 1311.17 2965.24 1256.82 2929.71 1212.62 2906.35 1183.55 2869.8 1156.34 2842.56 1147.71L2831.44 1144.2 2830.04 1070.98C2829.27 1030.72 2828.03 935.539 2827.29 859.473L2825.96 721.172 2837.12 698.053 2848.28 674.936 2866.22 669.99C2904.04 659.568 2928.03 643.802 2947.42 616.64 2991.28 555.191 2999.55 461.41 2969.14 370.19 2953.61 323.592 2930.04 285.033 2897 252.199 2874.68 230.022 2874.38 229.591 2875.7 221.402L2877.02 213.095 2862.08 204.35C2853.86 199.539 2841.01 193.419 2833.52 190.751L2819.9 185.897 2819.9 161.32C2819.9 147.802 2819.31 135.194 2818.58 133.299 2816.58 128.083 2806.48 129.047 2783.09 136.685 2771.58 140.445 2757.76 143.529 2752.36 143.544 2736.66 143.585 2693.88 132.388 2691.3 127.56 2688.17 121.71 2672.03 111.136 2661.9 108.291 2651.31 105.318 2554.12 83.2425 2403.15 49.521 2345.31 36.6012 2344.68 36.5119 2332.72 39.6286 2326.07 41.3578 2319 43.6492 2317 44.7207 2314.52 46.0493 2276.9 38.5223 2198.54 21.0134 2135.39 6.90465 2082.26-5.20267 2080.47-5.89095 2078.16-6.77527 2077.02-11.1378 2076.56-20.8624 2075.91-34.407 2075.82-34.588 2069.37-34.9886 2065.77-35.2129 2052.67-32.1093 2040.25-28.091M2050.85-22.7026C2029.9-15.9009 2028.4-17.2361 2066.65-8.62437 2072.57-7.29148 2072.64-7.40674 2072.64-18.2074 2072.64-24.2184 2071.9-29.0426 2071-28.9251 2070.11-28.8075 2061.04-26.0068 2050.85-22.7026M2021.49-18.2987C2017.29-16.7918 2017.29-16.6936 2021.89-14.2347 2027.14-11.4274 2033.95-10.7043 2029.94-13.3809 2028.62-14.261 2027.15-16.0753 2026.67-17.4124 2026.16-18.8412 2024.02-19.207 2021.49-18.2987M2019.76 79.0389C2020.35 129.148 2021.65 177.496 2022.65 186.48 2023.71 195.985 2024 158.641 2023.36 97.1835 2022.75 39.0864 2021.44-9.26241 2020.47-10.2577 2019.49-11.253 2019.17 28.9303 2019.76 79.0389M2025.44 21.2423C2026.23 38.4526 2026.87 83.164 2026.88 120.597 2026.88 158.032 2027.69 188.658 2028.68 188.658 2029.67 188.658 2035.26 177.705 2041.12 164.319 2047.53 149.642 2054.6 137.141 2058.91 132.828 2067.65 124.095 2083.72 118.963 2102.34 118.963 2112.49 118.963 2116.48 118.083 2117.91 115.542 2119.73 112.29 2190.54 91.7715 2194.76 93.2722 2198.91 94.7466 2268.71 163.106 2268.71 165.694 2268.71 167.245 2266.21 174.168 2263.15 181.079 2260.1 187.99 2258.12 195.011 2258.76 196.68 2260.57 201.397 2251.23 203.908 2244.55 200.498L2238.9 197.616 2239.09 211.105C2239.27 223.806 2237.91 227.574 2215.88 275.605 2203.01 303.659 2192.79 326.922 2193.16 327.301 2193.54 327.678 2198.2 321.43 2203.5 313.417 2239.48 259.103 2301.18 228.77 2360.26 236.345 2370.93 237.713 2381.9 239.66 2384.63 240.67 2390.57 242.866 2397.49 239.143 2407.05 228.615 2411.64 223.56 2416.83 220.69 2424.48 218.965 2430.47 217.614 2442.24 213.572 2450.63 209.983 2469.58 201.872 2497.9 191.666 2509.47 188.776 2517.44 186.785 2518.21 185.968 2518.19 179.513 2518.16 170.394 2524.92 168.118 2527.04 176.536 2528.68 183.07 2530.56 183.264 2548.1 178.72 2555.33 176.847 2561.95 176.113 2562.81 177.087 2565.58 180.227 2580.25 220.315 2580.24 224.704 2580.22 227.772 2574.48 232.255 2559.54 240.862 2548.17 247.413 2538.86 253.398 2538.86 254.161 2538.86 254.925 2544.73 269.927 2551.9 287.503 2559.07 305.077 2587.94 376.597 2616.05 446.436 2644.15 516.273 2668.31 575.967 2669.74 579.088L2672.32 584.763 2690.19 575.104C2708.14 565.401 2719.42 563.051 2723.49 568.17 2724.69 569.668 2728.85 579.634 2732.76 590.319 2741.18 613.386 2745.46 608.054 2696.91 634.926 2665.5 652.313 2659.04 655.012 2633.26 661.53L2604.57 668.787 2599.66 687.357C2579.98 761.645 2542.31 812.518 2489.32 836.354L2480.2 840.461 2488.94 846.788C2498.67 853.843 2509.41 869.376 2513.14 881.797 2515.99 891.304 2520.33 892.443 2522.4 884.228 2523.78 878.739 2524.33 878.541 2535.16 879.687 2541.39 880.344 2549.18 881.921 2552.48 883.191L2558.47 885.5 2558.47 943.187 2558.47 1000.87 2548.12 1003.94C2542.43 1005.62 2525.08 1010.27 2509.56 1014.26 2489.52 1019.41 2478.3 1023.57 2470.78 1028.63 2452.84 1040.7 2437.64 1042.93 2414.38 1036.9 2407.28 1035.06 2375.77 1027.79 2344.35 1020.73 2312.94 1013.68 2252.06 999.891 2209.07 990.086 2145.58 975.602 2130.57 972.812 2129.04 975.215 2125.77 980.379 2127.05 999.623 2131.28 1008.94 2135.26 1017.7 2135.76 1018.01 2150.29 1020.54 2171.61 1024.25 2190.46 1031.01 2197.15 1037.35 2202.69 1042.6 2203.41 1042.72 2215.12 1040.29 2228.39 1037.53 2248.95 1040.25 2253.14 1045.31 2254.35 1046.76 2255.65 1052.33 2256.03 1057.67L2256.73 1067.39 2268.71 1070.09C2415.99 1103.29 2481.91 1119.24 2486.89 1122.91 2492.61 1127.13 2492.77 1127.12 2509.22 1122.65 2522.2 1119.13 2525.79 1117.29 2525.79 1114.15 2525.79 1107.25 2531.71 1106.03 2546.12 1109.97L2559.56 1113.65 2559.56 1171.07 2559.56 1228.49 2548.66 1231.43C2513.81 1240.83 2516.23 1239.56 2512.11 1250.65L2508.33 1260.86 2518.84 1271.97C2569.79 1325.84 2612.58 1425.77 2618.68 1505.15 2619.86 1520.49 2620.79 1523.88 2624.12 1524.94 2626.33 1525.64 2639.07 1523.45 2652.42 1520.08L2676.71 1513.95 2712.35 1550.82C2731.96 1571.09 2748.01 1588.73 2748 1590.02 2748 1591.31 2745.1 1598.49 2741.56 1605.97 2734.04 1621.87 2730.15 1623.08 2720 1612.69 2713.3 1605.84 2713.19 1605.81 2701.76 1608.37 2690.67 1610.85 2690.11 1611.34 2685.58 1622.34 2683 1628.61 2662.58 1672.94 2640.19 1720.86 2617.8 1768.78 2593.09 1822.05 2585.27 1839.26L2571.06 1870.54 2585.53 1885.12C2604.27 1904 2605.09 1908.63 2593.72 1931.03L2585.43 1947.37 2547.44 1957.67C2504.33 1969.36 2482.01 1970.99 2453.23 1964.55 2397.14 1951.98 2343.35 1903.49 2347.83 1869.52 2348.42 1865.04 2355.86 1846.59 2364.36 1828.51 2372.86 1810.43 2379.82 1794.5 2379.81 1793.1 2379.8 1791.7 2373.19 1787.44 2365.1 1783.64 2357.02 1779.83 2347.83 1775.02 2344.68 1772.94 2339.11 1769.28 2337.92 1769.44 2303.28 1778.57 2283.67 1783.74 2264.47 1788.83 2260.63 1789.89 2254.36 1791.6 2253.84 1792.35 2255.61 1797.02 2258.17 1803.74 2252.82 1810.83 2239.14 1818.85 2233.65 1822.07 2229.48 1824.99 2229.87 1825.35 2230.26 1825.7 2240.67 1823.41 2253 1820.26 2272.57 1815.24 2275.67 1814.93 2277.47 1817.78 2278.61 1819.58 2279.55 1822.23 2279.57 1823.69 2279.6 1826.16 2238.9 1851.3 2219.69 1860.67 2214.9 1863.01 2194.93 1869.18 2175.32 1874.39 2136.34 1884.75 2132.54 1884.6 2132.56 1872.71 2132.56 1867.55 2131.85 1866.48 2129.29 1867.77 2123.99 1870.46 2091.73 1878.46 2084.62 1878.86 2071 1879.62 2070.46 1879.22 2062.49 1862.43 2058.22 1853.44 2053.85 1846.09 2052.79 1846.09 2051.72 1846.09 2050.85 1855.83 2050.85 1867.73 2050.85 1886.43 2051.37 1889.52 2054.66 1890.53 2059.67 1892.08 2742.61 2044.17 2751.82 2045.79L2758.9 2047.04 2758.88 2013.54C2758.87 1995.11 2757.9 1908 2756.72 1819.96 2755.54 1731.91 2752.61 1493.75 2750.22 1290.71 2747.83 1087.67 2744.89 848.038 2743.7 758.197 2742.51 668.356 2740.55 509.092 2739.35 404.277 2737.35 229.987 2735.81 151.777 2734.32 150.291 2734.01 149.982 2687.21 139.319 2630.32 126.597 2573.43 113.873 2487.66 94.6375 2439.73 83.85 2391.8 73.0605 2315.82 56.0353 2270.89 46.0145 2148.73 18.7723 2032.87-7.39591 2028.17-8.80498 2024.16-10.0072 2024.06-8.89003 2025.44 21.2423M2331.89 43.1002C2319.82 46.5087 2319.92 48.4449 2332.32 51.0391 2338.68 52.3677 2385.05 62.7215 2435.38 74.0469 2485.7 85.3746 2548.98 99.6056 2575.99 105.673L2625.11 116.705 2635.9 112.491C2641.84 110.173 2646.03 108.232 2645.2 108.176 2644.38 108.119 2628.69 104.595 2610.34 100.344 2554.51 87.4047 2377.64 47.6216 2359.76 43.9779 2340.92 40.1382 2342.24 40.1796 2331.89 43.1002M2156.75 106.013C2138.9 110.683 2123.79 115.01 2123.17 115.633 2122.55 116.256 2121.06 127.12 2119.86 139.776L2117.68 162.788 2132.68 177.901C2141.87 187.162 2149.48 193.014 2152.32 193.014 2156.35 193.014 2214.63 177.936 2251.94 167.236L2264.59 163.612 2229.79 130.398C2210.65 112.129 2193.69 97.26 2192.09 97.3536 2190.5 97.4472 2174.59 101.346 2156.75 106.013M2235.38 107.272C2232.66 109.99 2233.76 118.353 2237.21 121.217 2241.82 125.042 2245.28 121.196 2244.37 113.257 2243.69 107.309 2238.68 103.975 2235.38 107.272M2237.06 110.942C2236.16 113.157 2236.53 115.971 2237.89 117.332 2241.56 121.006 2243.56 117.484 2240.96 111.907 2238.86 107.389 2238.54 107.311 2237.06 110.942M2638.35 115.263C2632.54 117.746 2633.73 118.262 2658.69 124.051 2673.27 127.436 2685.67 129.733 2686.25 129.158 2687.93 127.481 2673.51 117.611 2665.44 114.908 2656.05 111.765 2646.24 111.894 2638.35 115.263M2087.89 127.536C2068.83 131.38 2057.41 143.309 2057.4 159.373 2057.37 189.858 2105.21 230.717 2154.34 242.156 2188.66 250.147 2219.71 242.609 2228.47 224.162 2231.84 217.052 2232.03 214.365 2229.86 204.041 2225.98 185.52 2224.26 184.655 2202.83 190.433 2192.93 193.099 2176.33 197.405 2165.93 200.003L2147.02 204.725 2134.8 196.615C2128.08 192.154 2121.74 186.293 2120.71 183.59 2119.68 180.889 2117.17 177.296 2115.14 175.606 2111.88 172.905 2111.62 169.675 2112.97 149.015L2114.51 125.497 2105.01 125.748C2099.79 125.885 2092.08 126.691 2087.89 127.536M2063.04 134.318C2055.55 140.891 2049.58 153.506 2051.49 158.731 2052.03 160.216 2053.22 157.624 2054.14 152.968 2055.22 147.473 2058.76 141.549 2064.22 136.089 2074.28 126.031 2073.62 125.036 2063.04 134.318M2789.4 143.687 2768.7 150.594 2769.35 210.462C2770.45 312.099 2781.39 1191.58 2785.07 1474.75 2789.17 1790.14 2791.54 1988.74 2791.56 2017.84L2791.58 2046.94 2797.57 2045.5C2800.87 2044.71 2811.29 2042.02 2820.73 2039.51L2837.9 2034.95 2836.46 1909.48C2834.6 1747.5 2831.25 1479.11 2829.7 1368.03 2828.39 1273.89 2825.49 1035.04 2822.16 747.307 2816.18 229.267 2814.7 136.392 2812.42 136.583 2811.14 136.692 2800.78 139.889 2789.4 143.687M2739.3 175.046C2739.31 187.922 2740.75 305.288 2742.51 435.858 2749.39 946.855 2758.21 1669.79 2760 1868.96 2760.67 1943.23 2761.77 2014.04 2762.44 2026.32L2763.67 2048.64 2776.49 2048.64 2789.31 2048.64 2788.21 1987.12C2787.6 1953.27 2786.14 1842.28 2784.96 1740.46 2781.77 1464.48 2772.07 684.791 2767.6 344.383 2766.42 254.542 2765.45 174.421 2765.45 166.334L2765.43 151.633 2752.36 151.633 2739.29 151.633 2739.3 175.046M2043.86 168.316C2041.97 172.916 2029.04 201.397 2015.14 231.606 2001.23 261.814 1989.85 286.909 1989.85 287.368 1989.85 287.83 1995 286.865 2001.29 285.223 2055.81 271.005 2117.25 281.64 2171.59 314.702 2185.69 323.279 2192.46 324.786 2192.46 319.345 2192.46 318.076 2197.5 306.04 2203.66 292.595 2209.82 279.153 2217.54 262.213 2220.81 254.951L2226.77 241.749 2218.83 245.678C2186.53 261.651 2135 251.327 2090.85 220.038 2069.31 204.773 2055.48 187.349 2049.8 168.316L2047.31 159.955 2043.86 168.316M2138.43 162.958C2133.61 167.78 2135.41 175.268 2142.24 178.801 2154 184.88 2159.78 182.368 2159.78 171.18 2159.78 163.028 2144.32 157.073 2138.43 162.958M2139.4 167.935C2137.22 173.624 2153.22 178.744 2156.51 173.413 2157.3 172.143 2155.08 171.234 2151.2 171.234 2146.73 171.234 2144.53 170.159 2144.53 167.968 2144.53 163.755 2141.01 163.734 2139.4 167.935M2116.21 168.098C2116.21 170.936 2141.9 196.371 2143.33 194.946 2143.92 194.347 2138.07 187.572 2130.31 179.888 2122.56 172.204 2116.21 166.898 2116.21 168.098M2204.99 182.741C2177.73 190.074 2155.42 196.826 2155.42 197.743 2155.42 198.66 2156.65 198.96 2158.15 198.409 2165.39 195.745 2258.78 171.463 2259.39 172.084 2259.79 172.476 2258.12 177.426 2255.69 183.085 2250.6 194.961 2250.56 195.192 2253.46 195.192 2254.66 195.192 2255.64 193.683 2255.64 191.838 2255.64 189.993 2257.6 184.642 2260 179.946 2262.39 175.251 2264.35 170.88 2264.35 170.233 2264.35 167.501 2251.84 170.139 2204.99 182.741M2243.11 179.578C2236.82 181.325 2231.68 183.46 2231.68 184.32 2231.68 187.563 2243.38 197.431 2245.14 195.671 2247.24 193.57 2255.84 177.126 2255.06 176.688 2254.78 176.532 2249.4 177.832 2243.11 179.578M2524.7 188.924C2493.81 197.113 2486.34 200.045 2489.17 202.868 2489.84 203.536 2505.84 200.047 2524.74 195.114 2552.3 187.918 2559.45 186.716 2560.9 189.035 2561.89 190.625 2565.41 199.522 2568.72 208.805 2572.02 218.087 2575.46 225.684 2576.35 225.684 2577.24 225.684 2575.15 218.087 2571.71 208.805 2563.99 187.948 2560.33 179.901 2558.66 180.103 2557.96 180.19 2542.67 184.159 2524.7 188.924M2551.02 192.718C2550.3 193.883 2543.35 198.396 2535.57 202.745 2527.79 207.093 2521.43 210.871 2521.43 211.139 2521.43 212.124 2534.81 246.314 2535.44 246.945 2535.96 247.464 2568.64 229.001 2571.06 226.823 2571.4 226.518 2568.88 218.542 2565.45 209.098 2559.62 193.003 2554.46 187.153 2551.02 192.718M2819.9 209.604C2819.9 228.008 2819.99 228.343 2824.8 227.036 2827.5 226.302 2838.76 223.493 2849.83 220.792 2860.9 218.091 2869.97 215.118 2869.98 214.182 2870.01 212.137 2826.98 190.836 2822.82 190.836 2820.61 190.836 2819.9 195.38 2819.9 209.604M2514.18 200.679C2500.01 204.632 2487.76 208.6 2486.95 209.497 2486.14 210.397 2487.44 210.381 2489.84 209.464 2492.24 208.547 2500.68 207.507 2508.61 207.154 2519.97 206.644 2525.5 205.089 2534.75 199.781 2549.21 191.492 2546.74 191.601 2514.18 200.679M2461.52 210.157C2433.56 222.256 2396.63 241.036 2398.03 242.439 2398.57 242.975 2403.27 241.208 2408.48 238.514 2413.69 235.82 2432.97 227.511 2451.33 220.049 2487 205.559 2487.43 205.333 2486.25 201.981 2485.83 200.774 2474.7 204.453 2461.52 210.157M2234.19 212.616C2233.81 222.961 2228.71 232.723 2220.32 239.176 2217.58 241.285 2216.46 243.033 2217.83 243.06 2221.39 243.127 2233.55 228.753 2235.07 222.678 2235.78 219.871 2235.95 214.254 2235.45 210.194 2234.67 203.787 2234.5 204.105 2234.19 212.616M2549.03 207.535C2546.41 210.148 2547.5 218.557 2550.81 221.304 2557.63 226.956 2563.1 219.374 2559.32 209.528 2557.99 206.056 2551.72 204.843 2549.03 207.535M2483.89 214.929C2455.61 222.996 2419.81 237.144 2385.23 253.923 2351.44 270.317 2336.25 280.015 2336.25 285.195 2336.25 286.567 2371.25 374.498 2414.03 480.595L2491.81 673.498 2509.75 662.236C2542.49 641.689 2605.18 616.12 2650.29 604.914L2673.49 599.151 2655.51 554.529C2645.62 529.987 2610.8 443.753 2578.14 362.896 2545.48 282.039 2518.27 214.659 2517.68 213.161 2516.13 209.24 2501.08 210.028 2483.89 214.929M2842.78 225.39C2822.44 230.911 2820.94 231.697 2820.3 237.205 2819.45 244.475 2819.68 244.477 2845.75 237.447 2868.67 231.266 2868.85 231.174 2871 224.05 2872.91 217.714 2870.66 217.821 2842.78 225.39M2843.1 241.021C2831.29 244.41 2821.22 247.594 2820.72 248.095 2820.22 248.596 2820.71 311.021 2821.82 386.819 2823.45 498.413 2824.39 524.978 2826.77 526.442 2860.92 547.455 2884.34 580.985 2880.04 602.708 2879.23 606.772 2872.33 623.327 2864.71 639.498 2857.08 655.669 2851.08 669.158 2851.37 669.471 2852.76 670.961 2891.79 658.189 2900.75 653.311 2925.95 639.6 2944.18 619.389 2959.38 588.316 2978.3 549.628 2984.86 513.982 2982.59 462.155 2979.43 390.02 2952.22 319.713 2907.25 267.477 2893.06 251.001 2872.84 234.235 2867.63 234.627 2865.94 234.753 2854.9 237.63 2843.1 241.021M2335.16 240.733C2337.56 241.672 2348.14 244.223 2358.68 246.403 2375.98 249.979 2378.18 250.038 2381.22 246.997 2384.26 243.955 2383.23 243.388 2370.59 241.189 2354.48 238.384 2328.3 238.046 2335.16 240.733M2298.87 246.139C2277.67 253.621 2258.91 265.865 2240.2 284.424 2224.33 300.17 2203.96 327.199 2206.24 329.479 2206.84 330.08 2232.17 323.989 2262.53 315.939 2292.89 307.889 2321.76 300.325 2326.69 299.131 2335.65 296.96 2335.65 296.949 2333.42 289.657 2330.56 280.364 2332.9 277.63 2354.68 264.793 2363.65 259.508 2370.28 254.553 2369.41 253.784 2367.93 252.466 2318.77 240.877 2315.09 240.975 2314.14 241.001 2306.85 243.323 2298.87 246.139M2235.78 280.068C2221.04 292.695 2194.44 328.573 2197.52 331.657 2198.11 332.241 2203.18 325.542 2208.8 316.771 2214.41 308 2225.51 294.209 2233.45 286.122 2241.4 278.036 2247.43 271.428 2246.87 271.434 2246.3 271.443 2241.31 275.326 2235.78 280.068M2023.62 284.574C2002.97 287.787 1973.2 296.986 1956.77 305.232 1937.99 314.656 1917.07 328.737 1912.8 334.828 1911.02 337.363 1906.71 341.177 1903.22 343.301 1886.99 353.171 1852.75 405.95 1841.64 438.234 1839.28 445.088 1837.35 450.984 1837.35 451.334 1837.35 451.683 1841.03 448.558 1845.52 444.387 1857.56 433.214 1873.69 423.045 1889.09 416.927 1902.11 411.752 1903.16 410.754 1913.21 394.03 1926.96 371.163 1937.78 358.126 1954.44 344.364 1979.55 323.612 2002.87 315.048 2034.37 315.007 2058 314.974 2076.61 319.291 2100.4 330.318 2173.25 364.081 2236.61 442.777 2270.44 541.49 2280.75 571.582 2286.86 597.186 2291.74 630.786 2296.62 664.432 2295.03 733.151 2288.66 763.864 2265.11 877.463 2196.72 945.777 2118.53 933.809 2088.27 929.179 2058.09 916.784 2037.35 900.467L2029.29 894.129 2010.95 896.568C1996.11 898.543 1989.12 898.395 1974.35 895.791 1964.3 894.02 1954.12 891.842 1951.72 890.947 1943.84 888.009 1963.82 906.865 1983.26 920.728 2004.86 936.122 2029.78 949.281 2032.57 946.768 2033.64 945.808 2042.35 947.26 2051.94 949.998 2061.53 952.733 2067.9 955.036 2066.1 955.112 2064.3 955.188 2057.44 953.805 2050.85 952.037 2044.26 950.268 2038.32 948.809 2037.65 948.796 2036.98 948.78 2040.42 956.774 2045.28 966.557 2053.61 983.321 2054.11 985.416 2053.97 1003.04 2053.85 1019.08 2052.93 1023.53 2047.54 1034.43 2044.08 1041.42 2038.51 1049.44 2035.16 1052.26 2027.49 1058.71 2027.52 1059.85 2035.37 1059.85 2048.12 1059.85 2061.43 1038.39 2067.12 1008.67 2070.77 989.62 2078.21 975.265 2088.06 968.245 2094.87 963.403 2094.53 960.69 2086.95 959.326 2084.64 958.91 2094.94 958.542 2109.83 958.507 2133.7 958.451 2138.97 957.728 2154.34 952.392 2199.58 936.682 2238.02 901.566 2263.08 853.065 2274.7 830.578 2286.66 795.983 2291.36 771.265 2296.44 744.589 2296.5 744.367 2296.78 751.21 2297.18 760.837 2290.85 788.911 2282.85 812.995 2268.78 855.35 2249.01 887.78 2220.9 914.63 2192.72 941.549 2162.35 956.312 2121.66 962.87L2102.05 966.028 2127.1 965.167C2207.88 962.388 2274.13 918.151 2314.14 840.289 2353.17 764.332 2361.28 667.487 2336.97 567.625 2329.06 535.086 2318.28 505.503 2302.47 472.883 2255.93 376.891 2183.3 310.113 2103.14 289.629 2079.7 283.637 2044.15 281.379 2023.62 284.574M1983.56 302.958C1975.9 304.696 1962.96 308.669 1954.8 311.788 1939.37 317.683 1912.21 333.92 1914.3 336.004 1914.95 336.662 1918.74 334.761 1922.71 331.779 1934.03 323.283 1950.89 315.538 1971.75 309.248 1997.45 301.499 2031.74 301.059 2060.44 308.111 2098.88 317.559 2138.92 341.351 2175.58 376.528 2184.86 385.44 2192.46 392.015 2192.46 391.137 2192.46 390.262 2183.24 380.733 2171.97 369.961 2138.51 337.98 2101.92 316.261 2064.34 306.075 2042.34 300.114 2002.81 298.589 1983.56 302.958M2268.72 318.444C2235.77 327.29 2207.53 335.02 2205.98 335.617 2204.16 336.314 2206.9 340.069 2213.6 346.065 2219.35 351.213 2229.44 360.912 2236.03 367.616L2248.02 379.806 2300.71 365.318C2329.69 357.349 2354.08 350.152 2354.9 349.327 2355.73 348.502 2352.25 337.496 2347.18 324.868 2339.37 305.456 2337.23 301.948 2333.29 302.133 2330.72 302.255 2301.67 309.594 2268.72 318.444M2010.55 320.277C1994.88 323.926 1983.51 328.595 1972.39 335.95 1965.38 340.585 1962.12 345.851 1950.71 370.882 1943.32 387.093 1937.68 400.764 1938.18 401.263 1938.68 401.762 1981.97 390.687 2034.37 376.654 2141.47 347.977 2134.79 351.769 2104.91 336.627 2073.25 320.582 2036.55 314.223 2010.55 320.277M1943.43 360.463C1932.77 371.636 1909.24 405 1909.24 408.947 1909.24 411.014 1927.34 406.281 1930.28 403.443 1932.66 401.147 1957.58 347.65 1956.27 347.65 1955.93 347.65 1950.15 353.417 1943.43 360.463M2303.57 367.4C2274.21 375.539 2249.78 382.265 2249.27 382.347 2248.76 382.43 2250.48 384.767 2253.08 387.542L2257.82 392.584 2310.11 378.379C2358.84 365.144 2362.31 363.874 2361.06 359.725 2360.33 357.277 2359.1 354.672 2358.34 353.938 2357.57 353.204 2332.93 359.261 2303.57 367.4M2072.64 370.336C2040.88 378.991 1996.84 390.905 1974.76 396.809L1934.62 407.544 1951.88 410.184C1972.81 413.381 1995.43 421.359 2012.2 431.463L2024.68 438.975 2102.58 418.025C2145.42 406.501 2180.9 396.72 2181.42 396.286 2184.2 393.958 2137.98 353.99 2132.97 354.391 2131.54 354.504 2104.39 361.681 2072.64 370.336M2312.28 380.551C2286.52 387.596 2264.26 393.81 2262.81 394.361 2261.13 394.997 2265.28 402.851 2274.1 415.76 2348.52 524.723 2374.51 676.604 2338.51 792.228 2336.17 799.762 2334.52 806.195 2334.85 806.524 2335.18 806.855 2358.42 800.901 2386.5 793.293 2414.58 785.686 2467.46 771.396 2504 761.534 2540.55 751.674 2572.07 742.738 2574.06 741.677 2577.97 739.589 2586.49 718.944 2593.37 694.879 2599.79 672.435 2599.89 672.693 2585.15 674.526 2578.26 675.384 2568.22 677.14 2562.82 678.429 2549.41 681.635 2545.4 681.448 2545.4 677.613 2545.4 673.468 2545.11 673.483 2524.7 678.701 2515.33 681.097 2504.33 683.057 2500.25 683.057 2491.06 683.057 2493.67 688.557 2441.94 560.002 2372.26 386.843 2364.09 367.25 2361.59 367.496 2360.24 367.631 2338.05 373.505 2312.28 380.551M2104.16 420.381C2063.38 431.424 2028.83 441.194 2027.36 442.098 2025.9 442.999 2024.71 446.197 2024.71 449.2 2024.71 453.384 2025.6 454.399 2028.52 453.53 2030.62 452.905 2068.12 442.871 2111.85 431.232 2155.59 419.59 2191.77 409.751 2192.27 409.363 2194.13 407.897 2185.09 399.93 2181.77 400.115 2179.86 400.222 2144.94 409.341 2104.16 420.381M1902.98 416.315C1804.73 443.655 1759.56 583.051 1804.92 718.922 1834.96 808.909 1899.81 877.095 1968.52 890.938 1989.27 895.117 1999.77 895.144 2019.07 891.056 2044.12 885.75 2060.21 876.818 2078.91 857.822 2088.04 848.548 2098.78 835.389 2102.77 828.578 2127.77 785.947 2138.32 728.205 2131.34 672.111 2121.45 592.497 2091.32 527.291 2041.59 477.895 2021.37 457.807 2020.19 456.139 2020.8 448.525 2021.42 440.715 2020.99 440.188 2007.81 432.465 1985 419.109 1968.31 414.516 1939.74 413.738 1922.3 413.264 1911.13 414.045 1902.98 416.315M2107.13 435.383 2025.07 457.461 2043.04 474.972C2072.28 503.479 2091.57 532.394 2108.99 573.85 2128.58 620.469 2137.2 668.184 2135.15 718.645 2133.28 764.555 2124.77 796.632 2105.9 828.846 2096.5 844.902 2075.79 868.063 2064.7 874.913 2060.55 877.474 2057.52 879.931 2057.96 880.371 2058.4 880.81 2091.05 872.475 2130.51 861.851 2169.98 851.225 2215.99 838.837 2232.77 834.317 2249.54 829.8 2264.52 824.569 2266.04 822.694 2267.57 820.82 2271.66 810.44 2275.12 799.631 2299.22 724.378 2296.89 633.633 2268.65 547.546 2251.11 494.075 2205.15 412.61 2192.82 413.148 2190.83 413.233 2152.27 423.241 2107.13 435.383M1885.13 440.824C1870.54 448.229 1846.07 470.991 1834.71 487.724 1782.24 564.964 1790.62 697.127 1853.87 789.843 1896.16 851.848 1960.31 885.706 2014.25 874.497 2056.05 865.811 2093.1 827.674 2109.26 776.71 2117.35 751.195 2119.34 736.91 2119.41 703.748 2119.49 666.134 2115.44 640.121 2104.07 605.223 2079.21 528.929 2031.9 473.376 1975.14 453.815 1957.92 447.882 1954.69 447.456 1934.47 448.46 1922.39 449.059 1910.43 450.226 1907.88 451.051 1903.9 452.35 1903.06 451.493 1901.81 444.829 1901.01 440.577 1899.56 436.605 1898.58 436 1897.6 435.394 1891.55 437.565 1885.13 440.824M1881.02 447.379C1828.65 478.341 1797.56 555.104 1804.64 635.935 1812.23 722.404 1849.41 797.433 1905.97 840.39 1935.29 862.651 1961.78 872.541 1992.09 872.541 2048.97 872.541 2092.23 831.238 2110.21 759.759 2116.63 734.235 2117.17 674.267 2111.23 646.032 2099.03 588.015 2074.49 537.815 2041.07 502.477 2021.39 481.678 2004.88 469.566 1984.8 461.211 1957.74 449.947 1935.01 448.277 1906.66 455.468 1901.27 456.834 1900.68 456.327 1899.33 449.104 1898.52 444.788 1897.14 440.815 1896.27 440.277 1895.4 439.739 1888.54 442.934 1881.02 447.379M2824.26 544.663C2824.26 550.138 2825.4 556.445 2826.8 558.684 2828.73 561.781 2828.73 566.416 2826.8 578.132 2825.4 586.591 2824.26 601.035 2824.26 610.233L2824.26 626.953 2837.36 626.005C2865.77 623.952 2878.35 601.469 2865.69 575.335 2860.56 564.737 2841.83 544.904 2831.04 538.643L2824.26 534.709 2824.26 544.663M2691.36 579.079C2678.46 586.464 2675.19 589.333 2675.84 592.728 2676.29 595.093 2676.78 600.704 2676.93 605.195 2677.08 609.688 2678.03 613.362 2679.05 613.362 2680.06 613.362 2691.14 610.668 2703.66 607.377 2725.59 601.61 2726.37 601.198 2725.09 596.1 2722.59 586.142 2714.24 570.892 2710.97 570.313 2709.17 569.992 2700.35 573.939 2691.36 579.079M2719.8 574.372C2723.42 581.144 2730.73 603.05 2729.7 604.076 2729.21 604.563 2714.41 608.743 2696.81 613.362 2679.21 617.982 2664.25 622.323 2663.56 623.007 2658.98 627.582 2669.89 626.269 2699.65 618.659 2730 610.904 2733.77 609.44 2733.2 605.652 2731.94 597.402 2721.26 569.803 2719.32 569.803 2718.24 569.803 2718.45 571.859 2719.8 574.372M2702.42 583.762C2699.07 587.791 2701.21 595.226 2706.53 598.073 2712.44 601.235 2716.71 595.305 2714.02 587.662 2711.64 580.884 2706.3 579.09 2702.42 583.762M2704.43 589.276C2704.43 593.262 2708.07 597.385 2709.94 595.516 2711.44 594.022 2708.37 585.049 2706.36 585.049 2705.3 585.049 2704.43 586.95 2704.43 589.276M2874.66 595.503C2874.14 608.102 2864.58 621.377 2852.58 626.162 2849.37 627.439 2848.57 628.388 2850.62 628.471 2852.54 628.545 2858.12 625.696 2863.04 622.137 2872.56 615.244 2877.83 603.629 2875.96 593.665 2875.14 589.304 2874.9 589.642 2874.66 595.503M3450.61 602.823C3395.96 613.064 3347.87 643.259 3313.68 688.801 3216.71 817.969 3237.1 1044.86 3358.53 1187.86 3385.51 1219.64 3423.62 1250.42 3456.39 1266.91 3474.26 1275.9 3479.19 1281.19 3485.67 1298.33 3489.45 1308.35 3491.48 1334.42 3488.7 1337.21 3488.08 1337.83 3477.39 1340.41 3464.95 1342.94 3438.41 1348.35 3428.83 1352 3420.65 1359.84 3415.37 1364.89 3414.66 1367.19 3414.66 1379.13 3414.66 1391.55 3415.22 1393.16 3421.25 1398.23 3426.69 1402.81 3437.38 1407.04 3455.25 1411.7 3457.78 1412.36 3460.53 1427.61 3458.35 1428.92 3457.69 1429.32 3423.32 1439.63 3381.98 1451.85 3285.26 1480.41 3258.05 1488.92 3256.78 1490.98 3256.21 1491.89 3255.67 1506.75 3255.58 1523.99 3255.42 1553.06 3254.93 1556.7 3248.81 1574.13 3242.82 1591.17 3241.57 1593.1 3235.3 1594.89L3228.39 1596.86 3226.74 1616.39C3223.22 1657.98 3222.52 1685.38 3224.93 1687.78 3226.31 1689.16 3227.3 1698.97 3227.3 1711.36L3227.3 1732.57 3218.04 1733.71C3212.95 1734.33 3198.98 1735.94 3187 1737.28 3156.24 1740.71 3126.36 1747.42 3108.57 1754.89 3084.87 1764.83 3079.15 1771.21 3079.16 1787.69 3079.18 1806.66 3092.62 1817.46 3127.21 1826.26 3172.22 1837.72 3270.43 1842.26 3328.6 1835.56 3381.59 1829.46 3423.17 1817.43 3435.42 1804.65 3440.88 1798.96 3441.75 1796.33 3441.82 1785.5 3441.87 1777.16 3440.63 1771.02 3438.11 1767.18 3426.3 1749.13 3353.51 1732.84 3284.65 1732.84L3262.16 1732.84 3262.16 1711.19C3262.16 1699.1 3263.12 1688.94 3264.34 1688.19 3265.53 1687.45 3266.5 1682.25 3266.49 1676.63 3266.48 1671.01 3269.08 1658.85 3272.29 1649.61L3278.1 1632.81 3285.46 1639.27C3290.44 1643.64 3295.06 1645.69 3299.81 1645.63 3309.76 1645.49 3324.07 1636.8 3325.01 1630.31 3325.43 1627.43 3329 1621.5 3332.95 1617.13 3339.8 1609.55 3340.03 1608.73 3338.17 1598.6 3337.1 1592.77 3335.16 1585.38 3333.85 1582.17 3330.67 1574.38 3318.42 1568.67 3308.76 1570.48L3301.33 1571.87 3301.55 1549.86C3301.78 1528.12 3301.85 1527.82 3307.57 1525.64 3312.67 1523.69 3314.01 1524.22 3318.96 1530.13 3325.9 1538.41 3330.58 1538.63 3333.86 1530.83 3339.87 1516.54 3340.8 1516.11 3407.44 1496.77 3442.42 1486.62 3473.05 1477.24 3475.51 1475.92 3478.17 1474.5 3480.96 1469.66 3482.38 1464.02 3484.75 1454.61 3484.83 1454.55 3490.57 1457.55 3493.75 1459.21 3497.58 1460.57 3499.08 1460.58 3500.58 1460.59 3501.8 1462.58 3501.8 1465.02 3501.8 1472.04 3506.58 1472.21 3529.41 1465.99 3558.25 1458.14 3558.45 1458.01 3558.45 1446.44 3558.45 1435.75 3556.62 1436.86 3585.68 1429.9 3601.97 1426 3604.2 1424.36 3604.2 1416.28 3604.2 1409.52 3604.79 1408.99 3615.31 1406.3 3621.42 1404.73 3629.75 1400.53 3633.83 1396.95 3640.71 1390.91 3641.23 1389.51 3641.23 1377.39 3641.23 1365.55 3640.57 1363.67 3634.15 1357.29 3628.86 1352.02 3622.64 1349.06 3609.5 1345.53 3599.83 1342.93 3589.84 1340.8 3587.31 1340.8 3578.25 1340.8 3571.32 1336.5 3568.15 1328.91 3564.85 1321.02 3563.87 1297.98 3566.65 1293.68 3567.53 1292.31 3575.6 1290.06 3584.59 1288.68 3656.07 1277.69 3709.67 1241.2 3748.01 1177.42 3790.12 1107.38 3802.79 1007.59 3782.58 905.21 3776.81 875.94 3760.14 825.268 3747.2 797.651 3698.56 693.808 3615.68 620.249 3528.3 603.381 3510.58 599.959 3467.53 599.65 3450.61 602.823M3444.11 608.264C3407.28 616.152 3373.24 634.208 3344.6 661.047 3311.71 691.869 3290.83 725.153 3275.36 771.415 3233.33 897.16 3261.67 1053.47 3347.21 1167.66 3364.28 1190.44 3400.82 1226.63 3421.2 1240.94 3441.55 1255.23 3464.89 1267.69 3470.45 1267.23 3473.09 1267.01 3479.01 1268.26 3483.62 1270.01L3492 1273.18 3483.63 1271.86 3475.25 1270.55 3480.68 1279.15C3495.01 1301.84 3497.6 1329.12 3487.55 1351.5 3484.39 1358.56 3478.94 1367.06 3475.46 1370.4 3467.53 1378 3467.49 1380.01 3475.3 1380.01 3479.88 1380.01 3483.27 1377.76 3488.49 1371.27 3497.45 1360.13 3501.11 1351.24 3505.34 1330.37 3509.18 1311.41 3515.37 1299.26 3526.19 1289.43 3532.78 1283.44 3535.51 1282.56 3551.41 1281.34 3609.04 1276.9 3655.06 1247.64 3690.16 1193.15 3708.67 1164.41 3720.39 1134.57 3729.4 1093.24 3735.24 1066.45 3736.67 1067.54 3731.49 1094.84 3717.17 1170.3 3675.95 1233.83 3621.63 1264.15 3606 1272.87 3580.05 1281.45 3561.36 1284.06 3547.16 1286.05 3547.52 1286.11 3569.34 1285.31 3660.01 1282.02 3736.37 1218.77 3769.65 1119.39 3808.72 1002.7 3785.48 853.2 3710.87 741.327 3664.23 671.384 3597.22 621.512 3531.85 608.096 3510.55 603.725 3464.89 603.812 3444.11 608.264M2641.59 611.383C2602.71 621.837 2528.08 653.975 2508.48 668.707L2500.98 674.346 2507.54 674.346C2514.74 674.346 2530.94 670.086 2550.2 663.131 2561.95 658.886 2562.56 658.311 2561.4 652.505 2560.31 647.073 2561.14 645.873 2568.58 642.109 2582.08 635.277 2609.07 626.156 2612.22 627.362 2613.81 627.972 2615.11 630.039 2615.11 631.953 2615.11 636.479 2619.76 635.031 2642.34 623.464 2651.93 618.555 2660.75 614.46 2661.95 614.366 2666.29 614.022 2673.93 610.856 2673.93 609.405 2673.92 606.234 2656.86 607.279 2641.59 611.383M2690.27 624.191C2652.85 634.33 2591.85 657.656 2599.86 658.764 2602.86 659.178 2606.32 660.35 2607.56 661.365 2608.85 662.423 2620.81 660.439 2635.48 656.732 2656.69 651.372 2666.39 647.393 2691.5 633.75 2708.2 624.675 2721.86 616.865 2721.86 616.394 2721.86 615.926 2721.62 615.628 2721.32 615.734 2721.02 615.841 2707.05 619.648 2690.27 624.191M3434.55 622.198C3396.62 627.249 3363.77 645.52 3333.94 678.152 3312.78 701.298 3287.59 742.503 3283 761.464 3282.28 764.459 3285.56 758.835 3290.29 748.967 3314.71 698.007 3353.25 655.556 3391.42 637.573 3426.25 621.166 3473.3 619.87 3516.08 634.14 3543.45 643.27 3580.97 665.93 3604.06 687.274 3610.57 693.296 3616.25 697.874 3616.67 697.447 3617.1 697.022 3610.82 690.6 3602.71 683.177 3554.23 638.76 3488.67 614.989 3434.55 622.198M2625.04 636.29C2595.39 647.896 2589.05 651.2 2591.59 653.74 2593.41 655.561 2659.43 629.638 2660.4 626.722 2661.79 622.543 2656.51 623.973 2625.04 636.29M2858.03 628.702C2853.23 630.956 2843.68 633.452 2836.78 634.251L2824.26 635.704 2824.45 662.103C2824.55 676.624 2825.29 693.255 2826.08 699.066L2827.52 709.627 2847.43 666.94C2858.37 643.462 2867.2 624.331 2867.03 624.429 2866.87 624.524 2862.82 626.448 2858.03 628.702M2584.61 638.664C2565.85 646.491 2561.07 649.358 2563.21 651.501 2563.86 652.152 2571.6 649.236 2580.41 645.017 2589.21 640.798 2599.64 636.741 2603.58 636.002 2611.05 634.6 2613.58 630.729 2606.94 630.862 2604.85 630.904 2594.8 634.414 2584.61 638.664M3439.71 639.258C3417.1 645.842 3403.01 654.565 3382.33 674.783 3355.75 700.771 3336.04 736.135 3324.16 779.16 3321.05 790.39 3315.62 807.167 3312.09 816.441 3298.06 853.216 3295.94 866.8 3296.01 919.367 3296.06 964.129 3296.47 969.003 3302.19 993.418 3318.88 1064.58 3357.12 1128.95 3403.79 1164.39 3412.47 1170.98 3427.04 1183.1 3436.18 1191.33 3504.12 1252.53 3574.59 1271.17 3628.81 1242.27 3645.82 1233.21 3673.38 1207.17 3685.92 1188.32 3708.46 1154.42 3724.11 1110.39 3730.81 1062.02 3734.34 1036.51 3734.3 983.011 3730.73 955.304 3715.22 835.082 3654.69 725.491 3572.88 669.502 3554.66 657.033 3522.97 642.695 3504.64 638.625 3484.39 634.125 3456.4 634.399 3439.71 639.258M3445.12 641.757C3405.33 651.204 3364.82 689.447 3342.93 738.225 3337.2 750.997 3325.34 784.067 3325.34 787.273 3325.34 788.02 3328.85 783.418 3333.14 777.048 3349.54 752.7 3378.05 729.487 3401.89 721.056 3407.12 719.21 3435.41 711.221 3464.77 703.304 3511.68 690.652 3520.52 688.901 3537.75 688.853 3559.34 688.794 3582.94 694.25 3602.69 703.868L3614 709.374 3602.02 698.009C3574.94 672.322 3539.1 651.44 3508.81 643.695 3491.55 639.282 3459.63 638.311 3445.12 641.757M2706.61 647.824C2706.61 654.519 2712.12 658.823 2715.88 655.066 2719.59 651.352 2716.72 642.808 2711.51 642.068 2707.38 641.482 2706.61 642.38 2706.61 647.824M2566.16 662.441C2550.9 670.632 2543.5 676.676 2549.03 676.449 2553.01 676.284 2585.53 657.832 2586.31 655.288 2587.53 651.35 2585.45 652.089 2566.16 662.441M2571.54 669.066C2566.15 672.043 2563.7 674.006 2566.09 673.426 2568.49 672.847 2573.15 671.732 2576.44 670.945 2579.73 670.159 2582.43 668.154 2582.43 666.487 2582.43 662.774 2583.31 662.567 2571.54 669.066M3522.5 693.015C3520.1 693.577 3501.97 698.172 3482.2 703.227L3446.25 712.418 3458.23 714.255C3484.02 718.205 3512.08 728.705 3530.68 741.364 3536.67 745.439 3536.78 745.423 3578.84 734.399 3602.03 728.322 3621.39 722.468 3621.86 721.39 3623.2 718.319 3598.33 705.368 3579.59 699.383 3563.36 694.198 3532.25 690.726 3522.5 693.015M3408.6 723.234C3335.53 746.889 3289.31 839.849 3298.92 943.795 3306.31 1023.6 3333.98 1088.89 3381.49 1138.6 3426.31 1185.5 3474.07 1204.87 3523.43 1196.16 3547.3 1191.95 3566.04 1182.56 3584.01 1165.82 3609.1 1142.44 3627.15 1109.78 3637.39 1069.23 3644.05 1042.84 3644.55 970.887 3638.26 942.236 3631.74 912.517 3622.48 886.373 3608.56 858.384 3592.74 826.572 3579.05 807.77 3553.34 782.536 3535.14 764.668 3533.75 762.682 3533.58 754.323L3533.39 745.332 3512.7 734.858C3486.63 721.669 3471.47 717.879 3445.25 718.003 3429.55 718.077 3420.58 719.358 3408.6 723.234M3583.5 736.302C3560.74 742.355 3540.88 748.1 3539.39 749.069 3536.74 750.781 3535.44 761.464 3537.88 761.464 3538.54 761.464 3555.94 756.921 3576.55 751.369 3597.15 745.818 3616.29 740.787 3619.08 740.192 3624.67 739.001 3626.71 735.629 3625.61 729.383 3624.95 725.58 3622.04 726.057 3583.5 736.302M3629.37 732.545C3628.31 735.294 3631.82 740.05 3642.5 750.365 3650.51 758.104 3656.04 762.52 3654.78 760.179 3651.81 754.63 3632.79 728.795 3631.67 728.795 3631.2 728.795 3630.16 730.483 3629.37 732.545M3393.96 746.73C3386.25 750.818 3373.71 760.841 3363.37 771.174 3348.68 785.862 3344.03 792.378 3334.57 811.558 3328.36 824.135 3320.64 844.227 3317.41 856.206 3312.01 876.2 3311.51 881.47 3311.35 920.456 3311.21 953.901 3312.02 966.849 3315.15 981.387 3328.06 1041.26 3353.22 1091.34 3389.43 1129.24 3447.03 1189.52 3525.18 1198.89 3576.32 1151.63 3612.58 1118.13 3630.91 1068.46 3631.09 1003.22 3631.25 946.152 3618.17 896.281 3590.87 849.946 3549.68 780.01 3491.22 743.842 3435.14 753.587 3425.67 755.231 3417.3 756.218 3416.54 755.778 3415.78 755.337 3414.51 751.537 3413.72 747.331 3412.93 743.126 3411.1 739.711 3409.66 739.743 3408.22 739.774 3401.15 742.919 3393.96 746.73M3580.05 753.419 3539.55 764.411 3559.54 784.388C3652.03 876.853 3675.73 1044.05 3610 1140.43 3600.02 1155.06 3583.25 1172.11 3571.26 1179.8 3565.41 1183.55 3560.63 1186.88 3560.63 1187.2 3560.63 1189.32 3639.34 1165.38 3649.91 1160.05 3679.82 1144.96 3706.55 1110.64 3721.58 1068.04L3729.47 1045.69 3729.27 1005.4C3729.07 962.778 3726.21 939.435 3716.42 900.619 3706.8 862.417 3690.1 818.934 3675.74 794.678 3666.57 779.169 3630.14 741.758 3624.59 742.144 3622.36 742.298 3602.32 747.371 3580.05 753.419M3395.22 750.017C3339.07 778.94 3304.94 864.121 3314.28 952.037 3326.72 1069.06 3398.36 1164.65 3483.35 1177.58 3498.12 1179.83 3503.37 1179.71 3517.12 1176.86 3532.72 1173.62 3551.07 1167.18 3549.42 1165.52 3548.98 1165.09 3541.08 1167.34 3531.85 1170.52L3515.07 1176.31 3497.76 1172.73C3469.69 1166.93 3459.26 1159.87 3467.14 1152 3468.84 1150.3 3468.84 1149.23 3467.14 1148.17 3464.48 1146.53 3463.97 1131.94 3466.43 1128.21 3467.31 1126.88 3471.22 1124.16 3475.12 1122.17 3483.58 1117.83 3484.29 1114.3 3476.7 1114.3 3472.95 1114.3 3470.58 1112.69 3469.28 1109.26 3467.65 1104.99 3464.04 1103.48 3445.57 1099.35L3423.78 1094.49 3417.78 1080.37C3414.47 1072.61 3410.71 1066.68 3409.4 1067.2 3408.1 1067.72 3399.95 1069.88 3391.29 1072 3376.3 1075.68 3375.35 1075.68 3371.34 1072.06 3361.34 1063.01 3341.01 1010 3343.97 1000.68 3344.7 998.362 3349.9 995.591 3357.58 993.418 3364.41 991.486 3371.72 989.404 3373.81 988.792 3379.27 987.198 3378.75 984.527 3367.82 958.451 3362.43 945.585 3358.02 933.365 3358.02 931.296 3358.02 929.227 3362.42 918.049 3367.8 906.458L3377.59 885.382 3372.84 878.961C3370.23 875.431 3367.41 872.541 3366.58 872.541 3365.74 872.541 3364.55 870.581 3363.92 868.185 3363 864.648 3360.95 863.829 3353.04 863.829 3347.02 863.829 3342.26 862.576 3340.57 860.544 3336.43 855.555 3339.04 840.477 3346.88 824.046 3355.97 805.015 3363.38 796.353 3370.74 796.159 3380.91 795.889 3384.06 793.271 3390.44 779.79 3393.87 772.537 3399.74 763.113 3403.49 758.846 3415.34 745.347 3411.75 741.505 3395.22 750.017M2510.54 763.851C2476.39 773.319 2447.23 781.521 2445.75 782.076 2443.75 782.824 2443.62 784.596 2445.24 788.861 2447.18 793.959 2446.58 795.441 2440.06 801.589 2436 805.414 2427.16 811.427 2420.42 814.951 2413.67 818.475 2408.15 821.903 2408.15 822.567 2408.15 823.231 2422.74 827.041 2440.58 831.033 2477.1 839.202 2476.68 839.24 2501.34 825.455 2525.13 812.156 2557.61 778.139 2570.23 753.297 2572.21 749.403 2573.56 746.312 2573.23 746.428 2572.9 746.543 2544.69 754.384 2510.54 763.851M3405.2 761.456C3399.66 768.04 3390.7 783.538 3390.7 786.539 3390.7 787.249 3395.64 781.297 3401.69 773.312 3413.03 758.332 3415.85 748.799 3405.2 761.456M3430.25 758.276C3422.64 759.927 3415.03 762.427 3413.34 763.836 3409.89 766.698 3395.05 786.472 3395.05 788.208 3395.05 789.255 3403.1 787.576 3414.13 784.222 3416.99 783.353 3420.4 783.858 3422.3 785.431 3424.34 787.127 3425.55 787.273 3425.55 785.827 3425.55 784.557 3429.96 777.087 3435.34 769.224 3440.73 761.362 3444.89 755.009 3444.6 755.102 3444.31 755.198 3437.85 756.627 3430.25 758.276M3446.89 760.92C3439.59 768.695 3426.86 789.636 3428.46 791.237 3429.15 791.919 3441.47 789.325 3455.86 785.474 3484.26 777.871 3486.4 777.875 3517.42 785.611 3526.6 787.902 3534.93 789.778 3535.93 789.778 3539.83 789.778 3515.2 773.65 3501.97 767.541 3489.44 761.754 3464.95 755.068 3455.92 754.967 3454.04 754.948 3449.98 757.627 3446.89 760.92M2395.18 795.142C2373.07 801.432 2354.6 807.698 2354.15 809.066 2352.75 813.267 2361.73 811.863 2379.35 805.131 2400.47 797.054 2426.84 789.778 2434.97 789.778 2440.69 789.778 2442.64 785.302 2437.42 784.157 2436.29 783.91 2417.29 788.854 2395.18 795.142M3454.96 789.534C3440.04 793.724 3434.55 796.074 3437.54 796.987 3439.93 797.721 3458.07 801.857 3477.84 806.178 3497.61 810.499 3521.3 815.929 3530.49 818.242 3549.25 822.966 3561.81 823.634 3564.04 820.028 3564.88 818.673 3560.75 812.821 3554.65 806.727 3544.47 796.549 3542.37 795.504 3522.24 790.59 3489.41 782.58 3480.24 782.436 3454.96 789.534M3414.68 789.767C3412.96 790.83 3402.69 793.844 3391.86 796.469 3374.8 800.602 3363.46 805.054 3370.11 805.011 3373.68 804.987 3416.99 792.529 3418.4 791.12 3420.74 788.778 3417.93 787.757 3414.68 789.767M2427.75 794.31C2414.16 796.915 2368.93 811.875 2368.93 813.768 2368.93 814.622 2374.68 816.538 2381.7 818.028 2393.37 820.503 2395.37 820.341 2404.79 816.175 2418.94 809.918 2440.82 796.438 2440.82 793.977 2440.82 792.864 2440.09 792.063 2439.19 792.195 2438.29 792.326 2433.14 793.278 2427.75 794.31M3405.95 798.551C3402.95 799.594 3394.96 802.007 3388.19 803.913 3376.14 807.311 3375.72 807.698 3367.84 822.698 3363.41 831.122 3360.12 838.185 3360.54 838.399 3360.95 838.61 3364.5 840.466 3368.42 842.526L3375.56 846.268 3381.28 833.814C3384.42 826.962 3387.09 819.986 3387.21 818.307 3387.34 816.56 3393.4 813.302 3401.39 810.684 3411.56 807.358 3415.84 804.777 3417.12 801.212 3419.07 795.769 3416.03 795.044 3405.95 798.551M3416.32 811.013C3413.25 817.902 3399.4 847.699 3385.54 877.23L3360.35 930.923 3379.92 979.316C3390.68 1005.93 3400.53 1029.3 3401.79 1031.25 3405.3 1036.65 3403.95 1033.08 3382.38 979.729L3362.76 931.193 3393.23 866.495C3409.99 830.911 3424.01 801.489 3424.38 801.112 3424.76 800.737 3437.67 803.373 3453.09 806.973 3468.5 810.571 3495.32 816.565 3512.7 820.289 3530.07 824.016 3545.91 827.531 3547.89 828.101 3550.14 828.752 3557.83 844.14 3568.46 869.291 3577.8 891.374 3585.82 909.067 3586.27 908.61 3586.97 907.911 3554.8 829.144 3553.04 827.25 3551.51 825.601 3431.32 798.49 3425.55 798.49 3423.22 798.49 3419.9 802.996 3416.32 811.013M3359.46 808.835C3348.91 825.575 3339.3 850.162 3341.14 855.67 3341.64 857.164 3343.82 852.993 3345.98 846.405 3348.14 839.817 3353.71 826.829 3358.35 817.547 3367.36 799.502 3367.88 795.48 3359.46 808.835M3413.54 830.364C3381.14 898.872 3368.33 927.131 3369.23 928.037 3369.77 928.582 3373.69 927.961 3377.93 926.661 3384.33 924.696 3385.47 923.451 3384.68 919.302 3383.38 912.528 3389.79 908.802 3411.24 903.856L3428.52 899.872 3444.65 866.242 3460.78 832.614 3457.21 821.262C3454.05 811.227 3452.83 809.77 3446.67 808.696 3442.85 808.029 3436.57 806.816 3432.74 806.002L3425.76 804.52 3413.54 830.364M3364.12 814.28C3360.34 820.241 3351.48 839.226 3351.48 841.372 3351.48 844.279 3355.25 838.793 3363.36 824.081 3367.82 815.996 3370.51 809.379 3369.35 809.379 3368.18 809.379 3365.83 811.584 3364.12 814.28M2329.23 818.636C2322.15 839.159 2301.88 872.258 2282.46 894.978 2250.69 932.15 2197.58 961.74 2152.6 967.33 2145.66 968.193 2140.35 969.273 2140.81 969.733 2141.59 970.517 2191.03 981.944 2338.43 1015.42 2372.58 1023.17 2402.44 1030.1 2404.8 1030.82 2407.7 1031.7 2405.82 1028.5 2398.96 1020.88 2383.66 1003.86 2378.68 987.318 2378.92 954.214 2379.07 932.121 2380 925.357 2384.88 910.485 2388.06 900.806 2394.43 887.085 2399.02 879.994 2409.69 863.533 2428.91 845.98 2440.43 842.18 2450.64 838.808 2450.61 836.654 2440.33 834.853 2436.41 834.165 2411.31 828.644 2384.57 822.58 2357.82 816.519 2334.98 811.558 2333.8 811.558 2332.63 811.558 2330.57 814.742 2329.23 818.636M3398.32 814.886 3389.61 817.756 3397.36 817.924C3401.62 818.015 3407.02 816.652 3409.34 814.894 3414.69 810.852 3410.57 810.85 3398.32 814.886M3460.41 815.613C3460.41 816.647 3465.89 818.135 3472.58 818.921 3495.48 821.611 3507.32 831.347 3511.27 850.728 3515.12 869.59 3519.23 865.576 3519.23 842.957 3519.23 832.876 3518.82 824.625 3518.32 824.625 3517.81 824.625 3506.07 822.175 3492.21 819.181 3464.82 813.261 3460.41 812.764 3460.41 815.613M3379.87 844.443C3368.96 867.126 3366.77 873.368 3371.36 868.786 3374.86 865.282 3393.22 824.246 3391.88 822.909 3391.27 822.293 3385.86 831.985 3379.87 844.443M3556.27 825.673C3556.27 826.248 3560.35 836.585 3565.33 848.642 3572.49 865.978 3575.11 870.278 3577.85 869.189 3579.76 868.433 3584.47 867.285 3588.32 866.638L3595.32 865.465 3591.8 858.656C3589.86 854.912 3584.28 845.725 3579.39 838.238 3571.48 826.133 3569.71 824.625 3563.38 824.625 3559.47 824.625 3556.27 825.096 3556.27 825.673M3523.59 845.362C3523.59 862.483 3523.21 864.099 3518.69 866.203 3515.99 867.455 3511.96 872.406 3509.72 877.201 3500.75 896.439 3478.96 896.574 3466.84 877.469 3463.23 871.778 3459.84 862.755 3459.04 856.702L3457.62 845.998 3444.78 872.793C3433.89 895.509 3432.27 900.432 3434.09 905.123 3435.27 908.166 3437.29 919.966 3438.58 931.346 3441.03 952.91 3444.31 966.193 3447.18 966.193 3448.11 966.193 3451.71 965.278 3455.18 964.164 3458.66 963.046 3466.89 960.639 3473.48 958.817L3485.46 955.497 3485.51 938.522C3485.56 920.293 3490.69 905.03 3500.28 894.606 3507.31 886.955 3521.05 881.355 3532.92 881.301 3543.42 881.253 3560.31 886.654 3557.72 889.237 3556.96 890.004 3560.33 894.965 3565.21 900.262 3583.94 920.571 3592.97 954.635 3586.34 979.964 3581.84 997.168 3583.16 999.026 3588.01 982.326 3592.88 965.581 3591.23 943.085 3583.77 924.62 3577.98 910.294 3577.57 904.62 3583.11 915.353 3592.91 934.378 3596.36 969.068 3590.17 986.409 3579.89 1015.22 3552.47 1028.09 3526.93 1016.09 3515.33 1010.64 3501.39 996.086 3494.82 982.559 3491.55 975.824 3488.97 973.028 3486.66 973.714 3484.8 974.265 3476.42 976.375 3468.04 978.403 3459.65 980.431 3452.57 982.24 3452.3 982.426 3452.04 982.611 3459.88 1002.31 3469.73 1026.21L3487.64 1069.65 3501.8 1073.31C3509.59 1075.32 3521.6 1077.04 3528.49 1077.12 3537.65 1077.23 3541.02 1078.08 3541.02 1080.29 3541.02 1082.21 3544.67 1083.86 3551.02 1084.81 3556.52 1085.63 3561.27 1085.99 3561.57 1085.6 3566.13 1079.72 3610.77 981.938 3610.03 979.451 3607.7 971.568 3583.8 912.202 3567.45 873.656L3549.91 832.298 3539.47 829.593C3523.02 825.327 3523.59 824.754 3523.59 845.362M3476.58 831.475C3470.08 834.624 3464.77 844.713 3464.77 853.888 3464.77 877.812 3487.58 894.972 3499.41 879.944 3509.4 867.246 3506.27 845.85 3492.76 834.487 3485.68 828.524 3483.5 828.117 3476.58 831.475M2163.59 856.824 2070.46 882.146 2070.46 889.215C2070.46 893.103 2071.5 901.153 2072.78 907.101 2074.85 916.758 2075.98 918.271 2083.31 921.203 2095.82 926.206 2123.25 931.346 2137.45 931.346 2183.19 931.346 2229.82 897.448 2256.43 844.843 2263 831.854 2263.17 831.096 2259.45 831.331 2257.96 831.427 2214.82 842.899 2163.59 856.824M3387.42 844.249C3383.47 853.009 3383.9 856.879 3388.52 854.026 3389.88 853.185 3390.47 851.127 3389.82 849.452 3389.18 847.775 3389.65 846.405 3390.86 846.405 3392.07 846.405 3392.78 844.689 3392.43 842.594 3391.98 839.928 3393 838.989 3395.81 839.473 3398.24 839.886 3399.27 839.233 3398.41 837.839 3395.55 833.207 3391.27 835.696 3387.42 844.249M2450.63 842.04C2438.85 844.693 2426.82 852.29 2415.61 864.147 2396.85 884.003 2386.82 905.894 2381.86 937.801 2377.44 966.333 2384.89 998.878 2400.56 1019.41 2413.28 1036.09 2438.82 1040.8 2459.82 1030.34 2478.68 1020.94 2478.78 1021.57 2454.04 994.348L2431.98 970.085 2432.59 941.654 2433.2 913.223 2460.43 906.186C2475.41 902.316 2493.27 897.511 2500.13 895.509L2512.59 891.868 2508.46 880.987C2497.7 852.691 2474.05 836.763 2450.63 842.04M3357.92 848.753C3354.63 854.91 3356.81 859.473 3363.04 859.473 3370.38 859.473 3374.45 850.369 3368.72 846.791 3362.92 843.171 3360.7 843.576 3357.92 848.753M3580.67 872.976C3576.09 877.55 3577.84 878.92 3585.14 876.485 3595.4 873.063 3597.46 870.363 3589.82 870.363 3586.23 870.363 3582.11 871.539 3580.67 872.976M3589.03 881.107C3587.14 884.631 3587.92 886.118 3593.85 890.256 3603.57 897.043 3604.42 898.642 3603.02 907.447 3602.35 911.672 3602.73 917.553 3603.87 920.515L3605.93 925.901 3608.33 919.77C3609.65 916.398 3610.73 912.439 3610.73 910.973 3610.73 907.307 3603.76 893.952 3598.07 886.719 3595.48 883.43 3593.9 879.876 3594.55 878.818 3595.21 877.761 3594.74 876.897 3593.51 876.897 3592.28 876.897 3590.27 878.791 3589.03 881.107M2060.66 884.532C2059.46 884.951 2052.73 886.893 2045.7 888.849L2032.93 892.408 2041.34 898.491C2045.97 901.836 2054.58 907.355 2060.47 910.757L2071.19 916.941 2069.74 911.62C2068.94 908.693 2067.67 901.153 2066.9 894.865 2066.13 888.577 2064.9 883.509 2064.17 883.603 2063.44 883.696 2061.85 884.117 2060.66 884.532M3512.32 890.52C3496.53 900.164 3488.73 916.655 3488.73 940.404 3488.73 955.613 3487.97 955.421 3516.94 947.482 3536.53 942.114 3537.66 942.029 3540.36 945.722 3547.17 955.029 3543.5 958.218 3518.26 964.919 3506.35 968.084 3496.08 971.187 3495.45 971.815 3493.35 973.919 3504.97 993.261 3513.43 1001.75 3535.27 1023.65 3565.8 1020.89 3577.9 995.925 3599.59 951.126 3570.66 885.844 3529.04 885.667 3523.78 885.646 3517.15 887.571 3512.32 890.52M2498.56 903.228 2444.09 917.751 2443.48 944.265 2442.87 970.778 2461.76 991.9C2472.15 1003.51 2481.48 1013.93 2482.47 1015.03 2483.56 1016.25 2498.66 1013.25 2520.29 1007.52L2556.29 997.996 2556.07 954.326C2555.96 930.307 2555.22 905.715 2554.44 899.68L2553.02 888.704 2498.56 903.228M3567.12 899.72C3572.38 905.086 3577.18 908.987 3577.78 908.392 3579.21 906.963 3562.56 889.965 3559.73 889.965 3558.53 889.965 3561.85 894.355 3567.12 899.72M3589.65 898.01C3587.78 898.685 3587.68 900.652 3589.31 905.308 3591.19 910.705 3592.17 911.341 3595.69 909.457 3597.97 908.235 3599.84 905.833 3599.84 904.121 3599.84 900.515 3593.41 896.657 3589.65 898.01M3424.49 909.022C3426.01 912.661 3429.55 959.243 3429.79 978.717 3429.93 989.132 3433.26 990.741 3439.79 983.539 3443.21 979.749 3443.44 978.085 3441.29 972.104 3439.91 968.254 3437.23 952.853 3435.35 937.88 3431.32 905.927 3431.13 905.21 3426.48 905.21 3423.93 905.21 3423.36 906.297 3424.49 909.022M3403.45 909.954C3396.19 911.888 3395.65 912.565 3397.1 917.895 3398.85 924.376 3403.26 924.679 3416.41 919.217 3422.71 916.599 3423.3 915.682 3421.23 911.81 3418.67 907.018 3415.65 906.704 3403.45 909.954M3388.52 920.275C3388.52 922.95 3389.92 924.812 3391.94 924.812 3393.97 924.812 3395.08 923.331 3394.67 921.181 3393.61 915.717 3388.52 914.968 3388.52 920.275M3612.07 921.327C3610.26 928.541 3610.82 929.627 3615.02 927.035 3617.34 925.598 3617.55 923.939 3615.85 920.147 3613.63 915.157 3613.62 915.159 3612.07 921.327M2434.32 940.602C2434.34 952.88 2435.3 964.396 2436.46 966.193 2437.89 968.406 2438.59 961.197 2438.61 943.869 2438.63 928.238 2437.8 918.278 2436.46 918.278 2435.15 918.278 2434.3 927.149 2434.32 940.602M3597.66 921.486C3597.66 925.766 3603.5 940.058 3605.25 940.058 3605.96 940.058 3605.52 938.163 3604.27 935.846 3603.04 933.528 3602.02 929.175 3602.02 926.173 3602.02 923.17 3601.04 920.108 3599.84 919.367 3598.64 918.626 3597.66 919.58 3597.66 921.486M3419.02 954.086C3419.02 982.885 3420.54 991.527 3424.87 987.202 3426.41 985.662 3425.88 946.628 3424.13 932.979 3421.54 912.707 3419.02 923.126 3419.02 954.086M3407.5 926.16C3406.76 926.903 3399.92 927.835 3392.31 928.233 3384.69 928.632 3375.88 929.939 3372.72 931.139L3366.99 933.317 3374.64 952.479C3399.83 1015.53 3426.52 1079.92 3428.59 1082.66 3430.67 1085.4 3434.59 1084.8 3456.92 1078.33 3471.17 1074.2 3483.17 1070.48 3483.59 1070.07 3484.36 1069.3 3450.42 985.974 3448.59 984.146 3448.03 983.582 3444.93 985.192 3441.71 987.725 3433.98 993.803 3420.08 994.023 3416.91 988.117 3415.68 985.799 3414.66 970.608 3414.66 954.358 3414.66 931.189 3414.03 924.812 3411.76 924.812 3410.16 924.812 3408.24 925.419 3407.5 926.16M2456.07 930.801C2448.13 933.343 2444.31 947.031 2449.97 952.69 2457.56 960.271 2471.07 950.196 2468.27 939.047 2466.76 933.047 2461.07 929.203 2456.07 930.801M2659.23 931.672C2655.78 935.116 2655.74 940.596 2659.12 943.978 2662.76 947.62 2664.71 947.254 2667.29 942.438 2670.34 936.741 2663.41 927.489 2659.23 931.672M3596.61 935.702C3597.53 938.697 3602.01 950.281 3606.56 961.445L3614.85 981.742 3587.56 1038.76C3572.56 1070.12 3558.28 1100.44 3555.83 1106.13 3553.38 1111.82 3551.16 1116.47 3550.9 1116.47 3549.58 1116.47 3443.68 1092.28 3436.3 1090.3 3426.74 1087.73 3424.93 1084.93 3412.56 1053.77 3408.61 1043.84 3405.01 1036.1 3404.55 1036.56 3403.35 1037.76 3423.46 1086.58 3426.38 1089.56 3428.79 1092.02 3542.34 1118.82 3550.5 1118.86 3551.52 1118.86 3565.06 1092.11 3580.58 1059.41 3596.11 1026.71 3610.7 996.001 3613 991.172L3617.2 982.391 3607.41 957.571C3598.23 934.319 3592.84 923.381 3596.61 935.702M2453.89 937.88C2448.7 943.07 2448.35 947.254 2452.8 950.948 2455.55 953.228 2456.08 952.836 2456.1 948.491 2456.15 941.26 2459.29 936.93 2462.91 939.108 2465.38 940.598 2465.38 940.282 2462.89 937.209 2459.15 932.609 2459.17 932.609 2453.89 937.88M2569.25 939.099C2565.28 943.878 2569.11 954.01 2575.21 954.885 2581.61 955.807 2583.9 948.066 2579.29 941.04 2575.22 934.824 2573.14 934.421 2569.25 939.099M2571.92 945.333C2572.31 948.495 2573.61 951.052 2574.81 951.015 2578.07 950.915 2577.44 941.661 2574.09 940.546 2572.07 939.872 2571.42 941.317 2571.92 945.333M3612.37 943.813C3609.07 944.303 3606.37 945.372 3606.37 946.191 3606.33 951.204 3620.45 981.439 3622.83 981.439 3627.7 981.439 3628.06 978.477 3625.34 960.753 3622.61 942.957 3622.15 942.36 3612.37 943.813M2718.18 947.977C2716.35 952.753 2720.28 958.57 2725.34 958.57 2730.22 958.57 2732 952.015 2728.31 947.576 2724.82 943.368 2719.87 943.564 2718.18 947.977M3498.54 956.299C3479.36 961.482 3459.51 966.847 3454.42 968.219 3447.52 970.081 3445.16 971.806 3445.16 974.99 3445.16 977.338 3446.13 979.261 3447.32 979.261 3449.22 979.261 3528.72 958.697 3536.28 956.251 3539.51 955.205 3538.96 948.364 3535.57 947.458 3534.37 947.138 3517.71 951.115 3498.54 956.299M2032.74 987.429C2034.14 1030.53 2035.22 1031.4 2035.43 989.606 2035.52 970.719 2034.72 955.304 2033.65 955.304 2032.54 955.304 2032.15 969.177 2032.74 987.429M2038.19 990.696C2038.76 1016.01 2039.39 1020.64 2042.24 1020.64 2048.39 1020.64 2050.85 1015.57 2050.85 1002.87 2050.85 991.044 2044.34 968.032 2039.56 962.926 2038.28 961.567 2037.77 971.995 2038.19 990.696M2089.44 970.576C2080.12 977.902 2073.01 992.201 2069.46 1010.72 2065.89 1029.36 2059.95 1043.4 2051.24 1053.75 2046.36 1059.54 2046.18 1060.25 2049.87 1059.13 2052.21 1058.43 2062.84 1055.69 2073.5 1053.06L2092.87 1048.26 2091.52 1024.65C2089.87 995.751 2093.29 992.756 2100.4 1016.89 2105.68 1034.84 2117.77 1052.53 2126.2 1054.64 2134.93 1056.83 2135.03 1053.83 2126.52 1045.11 2117.21 1035.55 2110.34 1021.06 2108.69 1007.48 2107.56 998.275 2107.76 998.503 2112.4 1011.93 2120.12 1034.25 2124.39 1040.9 2129.99 1039.36 2132.6 1038.65 2138.41 1037.45 2142.9 1036.7 2152.86 1035.03 2153.06 1033.59 2143.96 1029.35 2130.26 1022.97 2121.26 1002.13 2123.6 982.193L2124.91 970.97 2114.57 969.95C2108.88 969.391 2102.23 968.256 2099.79 967.43 2096.82 966.424 2093.4 967.465 2089.44 970.576M3610.1 1003.76C3604.82 1014.84 3600.75 1024.23 3601.06 1024.62 3601.37 1025.01 3607.6 1023.66 3614.9 1021.61L3628.16 1017.89 3628.16 1000.75C3628.16 985.242 3627.76 983.617 3623.94 983.617 3620.75 983.617 3617.34 988.572 3610.1 1003.76M3351.48 1000.24C3351.48 1004.44 3356.81 1018.46 3358.4 1018.46 3360.09 1018.46 3359.52 1013.53 3356.58 1002.67 3355.62 999.131 3351.48 997.157 3351.48 1000.24M3347.28 1004.62C3347.04 1011.58 3355.49 1037.5 3362.45 1051.13 3368.55 1063.11 3375.24 1073.08 3375.38 1070.41 3375.48 1068.28 3365.57 1047.37 3362.93 1044.15 3361.66 1042.6 3357.66 1032.02 3354.03 1020.64 3350.41 1009.26 3347.37 1002.05 3347.28 1004.62M3375.44 1002.24C3375.44 1004.93 3393.47 1045.85 3395.54 1047.87 3398.27 1050.52 3398.48 1051.17 3387.43 1023.14 3382.64 1010.99 3377.98 1001.04 3377.08 1001.04 3376.18 1001.04 3375.44 1001.58 3375.44 1002.24M3364.93 1004.78C3361.5 1005.43 3360.27 1006.8 3361.12 1009.01 3361.81 1010.82 3362.37 1013.13 3362.37 1014.17 3362.37 1015.2 3365.05 1017.33 3368.31 1018.9 3375.76 1022.46 3379.61 1032.21 3375.92 1038.12 3373.8 1041.51 3374 1043.82 3376.95 1050 3380.73 1057.92 3381.92 1058.5 3390.07 1056.32L3394.89 1055.02 3389.89 1044.91C3387.14 1039.35 3382.03 1027.7 3378.53 1019.02 3375.04 1010.34 3371.69 1003.36 3371.09 1003.52 3370.49 1003.68 3367.72 1004.25 3364.93 1004.78M2094.55 1028.73 2094.42 1048.79 2103.68 1051.16C2108.78 1052.46 2114.17 1053.94 2115.66 1054.44 2120.03 1055.9 2118.9 1053.51 2110.7 1043.93 2106.41 1038.93 2101.16 1029.14 2098.84 1021.81L2094.67 1008.66 2094.55 1028.73M2025.8 1027.55C2002.24 1032.39 1983.31 1040.95 1983.31 1046.78 1983.31 1053.57 1993.43 1059.29 2014.45 1064.4 2041.51 1070.97 2110.69 1072.77 2143.59 1067.77 2166.89 1064.23 2186.95 1057.79 2194.99 1051.29 2199.65 1047.52 2199.7 1047.09 2196.25 1041.82 2192.36 1035.89 2174.51 1028.99 2153.62 1025.37 2140.87 1023.16 2140.97 1025.16 2153.81 1029.27 2158.32 1030.71 2161.51 1032.68 2160.91 1033.65 2160.31 1034.62 2152.92 1037.1 2144.49 1039.17 2127.32 1043.37 2127.07 1045.52 2142.83 1053.55 2152.01 1058.24 2151.98 1062.11 2142.77 1061.87 2137.58 1061.74 2137.41 1061.51 2141.26 1059.93 2144.16 1058.74 2140.88 1058.16 2131.46 1058.21 2123.67 1058.25 2111.99 1056.68 2105.49 1054.72 2093.82 1051.19 2093.39 1051.23 2067.65 1057.92 2041.7 1064.67 2029.16 1065.2 2023.81 1059.79 2022.1 1058.06 2022.62 1056.73 2025.68 1055.01 2028.01 1053.7 2032.18 1050.18 2034.95 1047.19L2039.99 1041.75 2035.32 1039.36C2029 1036.14 2029.89 1032.97 2037.66 1030.95 2043.44 1029.46 2048.16 1025.66 2046.17 1024.12 2045.75 1023.79 2036.58 1025.34 2025.8 1027.55M3364.55 1026.58C3364.55 1028.84 3365.95 1032.6 3367.67 1034.93 3370.7 1039.05 3370.82 1039.05 3372.37 1035.05 3374.06 1030.69 3371.39 1024.74 3367.12 1023.31 3365.71 1022.84 3364.55 1024.31 3364.55 1026.58M3614 1031.88C3600.33 1036.43 3600.61 1036.24 3605.2 1037.94 3609.75 1039.63 3625.98 1034.37 3625.98 1031.2 3625.98 1028.88 3622.37 1029.09 3614 1031.88M3591.95 1043.89C3588.95 1050.69 3585 1059.13 3583.18 1062.64 3581.28 1066.32 3580.94 1068.38 3582.37 1067.5 3583.74 1066.65 3585.69 1063.85 3586.71 1061.27 3587.73 1058.69 3591.09 1050.94 3594.17 1044.06 3597.26 1037.17 3599.26 1031.53 3598.6 1031.53 3597.95 1031.53 3594.96 1037.09 3591.95 1043.89M3615.29 1041.66C3611.2 1043.44 3605.58 1044.33 3602.8 1043.63 3598.54 1042.56 3597.22 1043.63 3594.37 1050.43 3588.15 1065.33 3588.03 1068.13 3593.6 1068.93 3596.38 1069.32 3599.84 1072.06 3601.3 1075L3603.96 1080.35 3606.4 1073.91C3613.11 1056.15 3620.36 1042.42 3623.02 1042.42 3624.65 1042.42 3625.98 1041.44 3625.98 1040.24 3625.98 1037.47 3624.42 1037.68 3615.29 1041.66M2212.07 1048.87C2199.61 1052.87 2199.83 1053.47 2215.34 1057.54 2228.14 1060.9 2228.71 1060.65 2227.73 1052.22 2227.24 1048.03 2226.21 1044.7 2225.45 1044.81 2224.68 1044.93 2218.66 1046.76 2212.07 1048.87M2231.68 1053.18C2231.68 1058.04 2232.66 1062.02 2233.85 1062.02 2235.05 1062.02 2236.03 1058.65 2236.03 1054.53 2236.03 1050.41 2235.05 1046.43 2233.85 1045.69 2232.54 1044.88 2231.68 1047.85 2231.68 1053.18M2240.39 1055.54C2240.39 1062.51 2241.18 1063.84 2245.84 1064.74 2250.86 1065.7 2251.28 1065.14 2251.28 1057.62 2251.28 1050.65 2250.49 1049.31 2245.84 1048.42 2240.81 1047.46 2240.39 1048.01 2240.39 1055.54M3368.91 1047.95C3368.91 1051.02 3378.09 1066.65 3379.22 1065.51 3380.78 1063.94 3372.85 1046.84 3370.54 1046.8 3369.64 1046.79 3368.91 1047.31 3368.91 1047.95M3611.81 1071.28C3602.14 1095.33 3600.81 1099.35 3604.39 1093.7 3609.39 1085.82 3623.49 1051.13 3621.69 1051.13 3620.71 1051.13 3616.26 1060.2 3611.81 1071.28M2189.59 1057.99C2167.51 1069.37 2113.63 1076.6 2068.28 1074.27 2031.25 1072.37 2002.82 1066.29 1982.77 1055.97 1981.87 1055.51 1981.14 1058.02 1981.14 1061.55 1981.14 1070.14 1987.84 1078.17 1998.6 1082.47 2036.69 1097.71 2138.58 1097.07 2180.73 1081.34 2195.14 1075.96 2199.48 1071.11 2198.6 1061.35L2197.91 1053.71 2189.59 1057.99M3394.51 1060.34C3388.82 1061.53 3384.16 1063.37 3384.16 1064.44 3384.16 1066.96 3385.97 1066.89 3399.15 1063.85 3405.19 1062.46 3409.62 1060.5 3409 1059.49 3408.37 1058.49 3407.19 1057.78 3406.36 1057.92 3405.53 1058.07 3400.2 1059.15 3394.51 1060.34M2202.33 1062.49C2208.69 1079.06 2171.75 1093.14 2112.94 1096.56L2088.98 1097.96 2084.14 1107.76C2075.25 1125.78 2072.08 1143.44 2073.24 1168.6 2074.45 1195.02 2076.34 1202.32 2086.21 1218.79 2097.63 1237.82 2104.15 1240.65 2171.76 1255.87 2204.12 1263.16 2260.49 1275.97 2297.03 1284.34 2333.58 1292.72 2373.54 1301.87 2385.83 1304.68L2408.18 1309.79 2400.28 1301.05C2366.12 1263.25 2372.14 1186.2 2412.84 1140.1 2420.2 1131.77 2435.68 1121.35 2443.13 1119.71 2446.65 1118.94 2449.54 1117.64 2449.54 1116.82 2449.54 1115.58 2225.65 1063.42 2207.14 1060.34 2202.55 1059.58 2201.4 1060.09 2202.33 1062.49M3611.42 1086.13C3607.64 1094.43 3605.34 1101.23 3606.32 1101.23 3608.11 1101.23 3620.22 1072.96 3618.97 1071.71 3618.6 1071.34 3615.2 1077.83 3611.42 1086.13M3720.03 1083.21C3708.14 1115.66 3680.64 1148.33 3653.22 1162.62 3638.74 1170.16 3561.87 1192.74 3527.93 1199.41 3508.25 1203.28 3475.77 1200.98 3456.05 1194.31L3439.71 1188.78 3450.61 1198.72C3484.67 1229.8 3535.42 1251.58 3573.5 1251.45 3593.8 1251.39 3605.6 1248.79 3622.66 1240.63 3668.86 1218.51 3706.32 1161.88 3721.9 1090.6 3724.14 1080.35 3725.68 1071.66 3725.31 1071.3 3724.94 1070.93 3722.57 1076.29 3720.03 1083.21M3460.41 1080.35 3435.36 1087.51 3448.43 1090.19C3455.62 1091.66 3466.89 1094.21 3473.48 1095.84 3496.14 1101.46 3547.97 1112.43 3548.58 1111.73 3552.03 1107.8 3558.38 1091.61 3556.99 1090.31 3555.99 1089.38 3552.11 1087.97 3548.37 1087.19 3542.39 1085.93 3541.38 1086.41 3540.21 1091.09 3538.3 1098.71 3529.03 1101.36 3512.49 1099.02 3505.07 1097.97 3498.23 1096.32 3497.3 1095.36 3496.37 1094.39 3494.93 1089.93 3494.11 1085.44 3492.98 1079.29 3493.34 1077.23 3495.57 1077.12 3498.78 1076.95 3491.23 1073.23 3487.64 1073.21 3486.45 1073.2 3474.19 1076.42 3460.41 1080.35M3586.3 1076.73C3584.48 1078.82 3583.43 1081.76 3583.97 1083.26 3585.51 1087.52 3592.9 1086.45 3595.51 1081.58 3599.87 1073.43 3592.54 1069.56 3586.3 1076.73M3506.16 1085.29C3511.55 1087.07 3519.19 1088.47 3523.14 1088.4 3527.76 1088.33 3530.78 1089.51 3531.64 1091.74 3532.73 1094.59 3533.46 1094.29 3535.71 1090.08 3539.04 1083.86 3537.71 1080.93 3532.72 1083.52 3530.69 1084.57 3523.65 1084.65 3517.05 1083.69 3499.15 1081.08 3495.18 1081.67 3506.16 1085.29M3565.59 1097.94C3561.18 1106.85 3558.13 1114.7 3558.81 1115.38 3559.49 1116.06 3567.77 1114.57 3577.22 1112.06 3601.52 1105.6 3600.7 1105.97 3598 1102.72 3596.72 1101.18 3596.26 1097.65 3596.98 1094.88 3598.2 1090.22 3597.8 1089.96 3591.51 1091.34 3585.97 1092.56 3583.69 1091.81 3579.16 1087.28L3573.61 1081.73 3565.59 1097.94M3512.7 1094.69C3512.7 1095.89 3516.19 1096.87 3520.45 1096.87 3525.07 1096.87 3527.66 1095.99 3526.86 1094.69 3526.12 1093.5 3522.63 1092.52 3519.1 1092.52 3515.58 1092.52 3512.7 1093.5 3512.7 1094.69M2034.68 1179.09C2035.85 1273.83 2037.7 1335.07 2039.37 1333.41 2041.25 1331.53 2037.36 1094.69 2035.45 1094.69 2034.46 1094.69 2034.12 1132.67 2034.68 1179.09M2041.12 1179.63C2041.74 1225.75 2042.82 1279.27 2043.51 1298.57L2044.75 1333.66 2067.95 1327.36C2080.72 1323.9 2117.67 1314.11 2150.08 1305.61L2209.01 1290.14 2213.84 1281.32C2216.5 1276.46 2217.93 1271.85 2217.01 1271.06 2216.09 1270.28 2192.3 1264.46 2164.14 1258.13 2135.98 1251.8 2109.51 1244.86 2105.32 1242.72 2082.63 1231.12 2068.28 1200.3 2068.28 1163.19 2068.28 1145.32 2073.95 1117.58 2080.14 1105.18 2084.04 1097.36 2083.93 1097.32 2059.03 1096.45L2039.97 1095.78 2041.12 1179.63M3475.66 1109.63C3475.66 1110.66 3481.11 1112.07 3487.76 1112.76 3494.42 1113.44 3503.39 1116.08 3507.69 1118.62 3513.09 1121.81 3516.22 1122.54 3517.77 1120.98 3521.29 1117.47 3518.44 1116.08 3499.1 1111.82 3478.54 1107.3 3475.66 1107.03 3475.66 1109.63M3581.32 1114.59C3558.61 1121 3559.75 1120.42 3562.77 1124.05 3564.92 1126.64 3564.06 1128.47 3558.11 1133.99L3550.82 1140.74 3559.54 1140.04C3567.17 1139.43 3568.34 1139.95 3568.95 1144.24 3569.33 1146.94 3570.45 1149.14 3571.43 1149.14 3575.42 1149.14 3590.81 1131.6 3600.57 1115.93 3604.11 1110.24 3604.1 1109.95 3600.44 1110.11 3598.31 1110.21 3589.71 1112.22 3581.32 1114.59M2522.52 1126.32C2504.55 1131.17 2488.75 1135.82 2487.41 1136.65 2486.08 1137.47 2475.99 1153.22 2465.01 1171.64L2445.04 1205.13 2445.65 1230.15 2446.27 1255.17 2496.38 1241.71C2523.94 1234.3 2549.18 1227.58 2552.48 1226.77L2558.47 1225.29 2558.18 1195.38C2558.02 1178.94 2557.29 1154.68 2556.55 1141.48L2555.2 1117.49 2522.52 1126.32M3523.59 1121.87C3523.59 1126.86 3524.21 1127.1 3536.12 1126.7 3546.86 1126.33 3548.6 1126.82 3548.34 1130.09 3548.18 1132.18 3548.67 1133.87 3549.43 1133.83 3551.36 1133.73 3558.45 1128.23 3558.45 1126.82 3558.45 1126.19 3551.83 1123.98 3543.74 1121.93 3535.66 1119.87 3527.81 1117.83 3526.31 1117.4 3524.67 1116.92 3523.59 1118.69 3523.59 1121.87M2444.45 1122.02C2405.03 1136.48 2375.42 1196.37 2382.01 1248.31 2389.56 1307.83 2430.19 1331.68 2472.4 1301.37 2477.68 1297.59 2486 1288.77 2490.9 1281.79 2500.35 1268.31 2511.73 1245.44 2509.89 1243.59 2509.28 1242.99 2493.49 1246.59 2474.8 1251.59 2456.11 1256.59 2439.34 1260.12 2437.55 1259.43 2434.89 1258.41 2434.29 1253.06 2434.29 1230.32L2434.29 1202.46 2455.65 1166.61C2471.52 1139.99 2478.32 1130.46 2482.08 1129.57 2486.22 1128.6 2486.6 1127.93 2484.14 1125.92 2480.25 1122.75 2465.26 1118.64 2458.25 1118.82 2455.26 1118.9 2449.04 1120.34 2444.45 1122.02M3495.69 1121.28C3491.86 1125.1 3492.51 1127.36 3497.45 1127.36 3502.09 1127.36 3502.79 1125.75 3500.02 1121.39 3498.68 1119.28 3497.71 1119.26 3495.69 1121.28M3470.69 1130.88C3467.94 1133.63 3469.01 1144.16 3472.32 1146.9 3476.82 1150.63 3487.45 1146.81 3488.29 1141.16 3488.65 1138.75 3487.67 1135.72 3486.1 1134.43 3482.19 1131.18 3472.6 1128.97 3470.69 1130.88M3533.98 1133.82C3530.98 1136.18 3527.91 1137.49 3527.15 1136.73 3526.39 1135.97 3525.77 1136.56 3525.77 1138.04 3525.77 1139.55 3527.44 1140.26 3529.58 1139.66 3531.68 1139.08 3535.6 1137.97 3538.3 1137.19 3540.99 1136.41 3543.2 1134.38 3543.2 1132.66 3543.2 1128.4 3540.44 1128.75 3533.98 1133.82M2478.43 1136.57C2476.29 1139.23 2440.5 1198.6 2439.01 1201.96 2438.61 1202.86 2439.2 1203.59 2440.33 1203.59 2442.65 1203.59 2483.04 1136.17 2481.59 1134.73 2481.08 1134.21 2479.66 1135.04 2478.43 1136.57M3493.15 1135.99C3491.39 1137.11 3490.61 1138.68 3491.42 1139.49 3493.63 1141.7 3508.66 1138.35 3507.18 1135.96 3505.56 1133.33 3497.33 1133.35 3493.15 1135.99M3536.66 1141.47 3526.86 1144.12 3534.94 1145.1C3539.39 1145.63 3542.59 1145.63 3542.06 1145.1 3541.52 1144.56 3542.79 1142.84 3544.87 1141.26 3546.94 1139.68 3548.15 1138.49 3547.55 1138.61 3546.96 1138.73 3542.05 1140.01 3536.66 1141.47M3500.05 1144.22C3485.92 1149.09 3490.48 1149.8 3505.27 1145.02 3512.35 1142.74 3516.18 1140.89 3513.79 1140.92 3511.39 1140.95 3505.21 1142.44 3500.05 1144.22M3556.27 1146.52C3553.27 1146.97 3549.84 1148.36 3548.64 1149.62 3547.13 1151.2 3548.76 1151.47 3553.93 1150.5 3565.07 1148.41 3567.13 1144.89 3556.27 1146.52M3498.54 1151.21 3485.46 1155.08 3494.18 1157.38C3516.31 1163.21 3516.59 1163.19 3516.2 1155.41 3516.01 1151.54 3514.9 1148.14 3513.73 1147.86 3512.56 1147.57 3505.73 1149.08 3498.54 1151.21M2832.14 1258.34 2833.59 1368.03 2860.51 1435.52C2875.32 1472.64 2887.44 1504.61 2887.44 1506.56 2887.44 1511.4 2870.69 1524.05 2851.1 1534.01L2834.85 1542.27 2836.36 1586.91C2837.18 1611.47 2838.04 1631.78 2838.25 1632.04 2838.47 1632.3 2852.7 1628.57 2869.88 1623.75 2911.26 1612.14 2923.88 1605.54 2944.08 1584.97 2969.89 1558.67 2985.44 1527 2995.52 1480.19 3001.06 1454.47 3001.09 1393.51 2995.58 1365.85 2979.93 1287.28 2939.28 1216.29 2887.44 1176.96 2873.3 1166.24 2848.17 1152.94 2836.73 1150.13L2830.69 1148.64 2832.14 1258.34M3521.32 1152.52C3519.01 1155.3 3519.12 1156.49 3521.91 1159.29 3524.84 1162.22 3526.13 1162.28 3531.5 1159.7 3534.91 1158.07 3538.03 1155.03 3538.43 1152.94 3539.01 1149.92 3537.62 1149.14 3531.64 1149.14 3527.51 1149.14 3522.86 1150.66 3521.32 1152.52M3470.28 1160.14C3472.57 1163.84 3492.98 1169.07 3508.34 1169.88L3524.68 1170.74 3511.61 1168.67C3504.42 1167.53 3491.95 1164.77 3483.89 1162.54 3475.84 1160.3 3469.71 1159.22 3470.28 1160.14M2569.8 1167C2563.71 1173.09 2569.46 1186.09 2576.96 1183.21 2582.81 1180.97 2579.95 1164.39 2573.72 1164.39 2573 1164.39 2571.23 1165.56 2569.8 1167M2570.89 1171.66C2570.27 1173.27 2570.61 1175.96 2571.65 1177.63 2574.23 1181.81 2578.7 1177.26 2576.82 1172.37 2575.14 1168 2572.42 1167.67 2570.89 1171.66M2436.46 1229.6C2436.46 1243.14 2437.41 1254.01 2438.64 1254.77 2440.05 1255.64 2440.82 1247.17 2440.82 1230.95 2440.82 1215.61 2439.97 1205.77 2438.64 1205.77 2437.32 1205.77 2436.46 1215.17 2436.46 1229.6M2453.89 1212.3C2446.45 1219.74 2450.14 1234.08 2459.49 1234.08 2464.06 1234.08 2471.32 1226.05 2471.32 1221.02 2471.32 1216.48 2464.21 1207.95 2460.43 1207.95 2459.23 1207.95 2456.29 1209.91 2453.89 1212.3M2456.51 1214.92C2453.35 1218.07 2453.01 1229.73 2456.07 1229.73 2457.27 1229.73 2458.25 1227.19 2458.25 1224.08 2458.25 1220.27 2459.67 1218.06 2462.58 1217.3 2464.97 1216.68 2466.38 1215.3 2465.72 1214.23 2464.04 1211.51 2459.59 1211.84 2456.51 1214.92M2499.02 1277.18C2482.43 1304.04 2455.97 1320.6 2433.2 1318.35 2427.21 1317.76 2385.55 1308.83 2340.63 1298.51 2295.71 1288.2 2257.47 1280.35 2255.66 1281.07 2252.66 1282.26 2114.35 1319.21 1994.51 1350.82 1947.79 1363.15 1946.19 1363.74 1955.3 1365.46 2002.32 1374.29 2029.47 1388.62 2062.91 1422.28 2121.34 1481.09 2156.6 1578.23 2152.66 1669.58 2149.56 1741.27 2125.16 1794.78 2080.26 1828.31 2073.07 1833.68 2068.83 1837.49 2070.84 1836.77 2076.06 1834.9 2154.8 1813.7 2258.91 1786.14 2385.08 1752.72 2399.69 1748.69 2401.46 1746.78 2403.26 1744.84 2408.69 1733.17 2469.79 1599.98 2505.25 1522.69 2508.68 1517.6 2529.38 1511.59 2546.61 1506.58 2575.6 1508.34 2598.68 1515.8 2608.21 1518.88 2616.26 1521.16 2616.55 1520.86 2616.85 1520.56 2615.65 1509.34 2613.9 1495.92 2602.94 1412.29 2567.56 1332.25 2515.59 1273.55L2507.15 1264.02 2499.02 1277.18M2218.82 1279.89 2213.87 1288.71 2220.05 1287.22C2223.45 1286.4 2231.62 1284.06 2238.21 1282.03L2250.19 1278.33 2240.39 1275.68C2235 1274.22 2229.05 1272.59 2227.18 1272.05 2224.95 1271.41 2222.09 1274.09 2218.82 1279.89M3528.43 1291.73C3517.87 1300.61 3512.98 1310.4 3508.41 1331.77 3503.67 1353.92 3500.49 1361.15 3490.38 1372.66 3484.82 1378.99 3484.27 1380.35 3487.7 1379.34 3491.95 1378.07 3512.53 1373.02 3524.14 1370.39L3530.13 1369.03 3530.13 1345.12C3530.13 1331.96 3531.03 1321.2 3532.12 1321.2 3533.22 1321.2 3535.18 1326.14 3536.47 1332.16 3540.98 1353.17 3556.4 1375.65 3566.3 1375.65 3573.34 1375.65 3572.88 1373.47 3564.04 1364.9 3555.11 1356.25 3547.91 1340.48 3546.36 1326.17 3545.33 1316.64 3545.66 1317.14 3550.3 1332.09 3556.35 1351.62 3561.98 1360.92 3566.91 1359.5 3568.84 1358.94 3574.81 1357.35 3580.17 1355.97L3589.91 1353.45 3583.33 1350.68C3568.06 1344.26 3559.44 1326.41 3561.17 1304.8L3562.26 1291.22 3553.28 1290.01C3548.33 1289.35 3542.24 1288.19 3539.74 1287.42 3536.61 1286.46 3533.1 1287.8 3528.43 1291.73M3532.36 1350.79 3532.3 1368.4 3544.29 1371.74C3550.88 1373.57 3556.27 1374.3 3556.27 1373.36 3556.27 1372.43 3555.54 1371.33 3554.64 1370.93 3550.21 1368.94 3542.38 1357.42 3537.66 1345.96L3532.41 1333.18 3532.36 1350.79M3468.31 1346.37C3435.11 1352.96 3416.67 1362.04 3419.82 1370.24 3421.51 1374.65 3435.94 1381.04 3455.17 1385.89 3477.52 1391.52 3567.02 1391.48 3593.31 1385.82 3616.06 1380.92 3631.92 1374.31 3635.08 1368.41 3637.1 1364.64 3636.53 1363.2 3631.44 1359.14 3625.73 1354.59 3603.32 1347.09 3586.93 1344.24 3578.4 1342.75 3579.64 1345.19 3589.07 1348.43 3592.56 1349.62 3595.68 1351.58 3596 1352.78 3596.43 1354.41 3577.86 1360.67 3567.37 1362.44 3564.57 1362.91 3575.49 1371.66 3581.67 1373.89 3590.36 1377.04 3590.11 1380.9 3581.16 1381.57 3577.65 1381.83 3576.02 1381.5 3577.52 1380.84 3579.03 1380.18 3579.72 1378.76 3579.06 1377.69 3578.38 1376.6 3576.11 1376.83 3573.88 1378.22 3570.8 1380.15 3565.52 1379.68 3550.36 1376.15L3530.82 1371.59 3505.96 1377.93C3483.04 1383.77 3473.84 1384.4 3462.82 1380.88 3460.77 1380.22 3462.84 1377.09 3469.22 1371.21 3478.56 1362.58 3478.9 1359.48 3470.64 1357.89 3464.43 1356.7 3466.26 1352.95 3474.02 1350.99 3477.92 1350 3482.54 1347.8 3484.3 1346.09 3488.01 1342.47 3487.92 1342.47 3468.31 1346.37M1911.36 1373.21C1875.37 1384.72 1847.42 1410.01 1828.88 1447.83 1810.14 1486.05 1803.23 1522.81 1805.41 1572.76 1807.43 1619.13 1817.13 1659 1836.28 1699.62 1853.46 1736.05 1879.56 1771.4 1904.43 1791.93 1915.32 1800.92 1915.9 1801.89 1914.78 1809.5 1913.71 1816.69 1914.35 1818.13 1920.82 1823.07 1940.58 1838.13 1975.33 1848.89 2004.01 1848.82 2038.59 1848.74 2065.24 1838.63 2090.04 1816.2 2150.98 1761.06 2167.25 1653.21 2131.18 1543.35 2102.65 1456.47 2041.74 1389.49 1975.78 1372.47 1958.2 1367.93 1926.71 1368.29 1911.36 1373.21M3626.87 1378.01C3593.34 1398.79 3467.3 1400.19 3428.14 1380.22L3419.02 1375.56 3419.02 1382.28C3419.02 1392.67 3422.39 1396.75 3434.8 1401.38 3479.29 1417.95 3571.84 1417.64 3619.34 1400.76 3633.04 1395.89 3636.88 1391.76 3636.88 1381.85 3636.88 1372.41 3636.28 1372.18 3626.87 1378.01M2833.91 1399.61C2834.58 1409.79 2835.13 1439.9 2835.14 1466.53L2835.15 1514.93 2841.14 1512.63C2844.44 1511.37 2855.12 1508.2 2864.89 1505.6L2882.64 1500.86 2860.4 1445.34C2848.17 1414.8 2836.93 1387.85 2835.43 1385.45 2833.15 1381.83 2832.9 1384.22 2833.91 1399.61M1922.89 1389.84C1876.58 1399.9 1841.37 1439.87 1824.95 1501.06 1819.73 1520.51 1819.13 1526.57 1818.99 1561.87 1818.82 1603.89 1821.06 1619.68 1832.28 1655.25 1859.79 1742.53 1923.54 1806.86 1990.21 1814.62 2003.47 1816.16 2029.49 1812.67 2041.23 1807.76 2048.25 1804.83 2048.36 1804.88 2049.77 1811.28 2050.56 1814.86 2051.86 1817.77 2052.66 1817.76 2058.25 1817.68 2078.7 1802.42 2090.98 1789.17 2148 1727.6 2152.1 1604.3 2100.48 1503.49 2068.59 1441.22 2016.78 1397.13 1965.77 1388.85 1948 1385.97 1939.84 1386.16 1922.89 1389.84M1920.73 1394.1C1886.37 1403.8 1861.49 1425.54 1843.88 1461.25 1837.86 1473.47 1831 1491.14 1828.65 1500.52 1810.31 1573.51 1825.71 1659.2 1869.12 1725.78 1910.53 1789.29 1974.52 1822.91 2025.87 1808.13 2031.82 1806.42 2047.47 1801.99 2060.66 1798.3 2082.3 1792.23 2085.38 1790.73 2092.48 1782.7 2121.72 1749.63 2137.79 1685.34 2131.82 1625.21 2125.52 1561.7 2102.92 1503.36 2067.66 1459.58 2042.32 1428.1 2015.78 1408.33 1983.91 1397.19 1967.14 1391.33 1935.97 1389.8 1920.73 1394.1M3578.06 1413.9C3569.07 1415.47 3556.08 1416.82 3549.19 1416.9L3536.66 1417.03 3536.66 1426.83C3536.66 1438.89 3535.8 1438.83 3571.52 1429.32 3597.22 1422.48 3598.79 1421.75 3599.44 1416.29 3600.22 1409.75 3601.21 1409.86 3578.06 1413.9M3462.59 1417.72C3462.59 1421.41 3464.09 1423.75 3467.07 1424.7 3479.47 1428.63 3531.45 1438.05 3533 1436.65 3533.98 1435.76 3534.47 1431.3 3534.09 1426.74 3533.3 1417.37 3538.59 1418.74 3493.09 1416.1 3481.71 1415.43 3470.19 1414.28 3467.49 1413.53 3463.33 1412.38 3462.59 1413.01 3462.59 1417.72M3472.39 1446.02C3473.32 1454.63 3474.05 1463.99 3474 1466.8 3473.95 1470.03 3474.68 1471.16 3475.99 1469.85 3477.12 1468.71 3478.51 1459.91 3479.07 1450.29 3480.04 1433.8 3479.83 1432.74 3475.4 1431.58 3470.8 1430.38 3470.74 1430.68 3472.39 1446.02M3417.93 1445.26C3395.16 1452.17 3360.76 1462.46 3341.48 1468.12 3322.21 1473.78 3305.05 1479.27 3303.36 1480.31 3296.7 1484.43 3303.35 1515.61 3311.56 1518.76 3313.59 1519.54 3461.15 1478.25 3468.44 1474.86 3468.66 1474.76 3468.27 1465.14 3467.57 1453.48 3466.52 1435.88 3465.71 1432.31 3462.81 1432.49 3460.89 1432.6 3440.69 1438.35 3417.93 1445.26M3489.55 1437.64C3487.71 1442.43 3490.71 1445.18 3498.64 1445.97 3502.18 1446.32 3511.23 1449.79 3518.76 1453.67 3530.99 1459.97 3533.3 1460.49 3540.54 1458.48 3551.8 1455.36 3553.35 1453.97 3554.5 1445.87L3555.52 1438.77 3542.28 1440.1C3530.85 1441.25 3513.41 1439.4 3495.83 1435.17 3492.52 1434.37 3490.5 1435.16 3489.55 1437.64M3490.91 1451.84C3490.91 1454.45 3501.43 1457.34 3503.48 1455.29 3505.37 1453.4 3499.67 1449.78 3494.72 1449.74 3492.63 1449.72 3490.91 1450.66 3490.91 1451.84M3506.64 1460.55C3506.43 1467.99 3506.33 1467.96 3518.08 1464.7L3526.72 1462.3 3521.34 1459.54C3509.18 1453.3 3506.84 1453.46 3506.64 1460.55M3290.49 1488.89C3287.98 1493.58 3288.32 1517.44 3290.88 1515.88 3291.69 1515.38 3293.9 1517.16 3295.78 1519.85 3298.1 1523.16 3299.19 1523.67 3299.19 1521.46 3299.19 1519.66 3297.86 1516.25 3296.24 1513.89 3292.26 1508.13 3290.36 1495.37 3292.66 1489.99 3294.2 1486.4 3294.56 1486.94 3294.68 1493.07 3294.86 1501.59 3301.65 1523.71 3304.1 1523.74 3306.72 1523.76 3305.99 1519.64 3302.39 1514.15 3300.56 1511.35 3298.46 1504.01 3297.72 1497.83 3296.22 1485.14 3293.98 1482.37 3290.49 1488.89M3273.05 1490.85 3261.07 1494.54 3260.45 1517.72 3259.83 1540.89 3269.17 1542.29C3274.3 1543.05 3282.42 1543.37 3287.21 1542.98 3294.45 1542.39 3296.05 1541.4 3296.65 1537.14 3297.83 1528.78 3295.03 1521.51 3289.89 1519.61 3285.44 1517.96 3285.13 1516.66 3285.8 1502.28 3286.19 1493.73 3286.18 1486.82 3285.77 1486.94 3285.37 1487.06 3279.64 1488.82 3273.05 1490.85M2872.19 1508.47C2875 1510.26 2875.04 1511.25 2872.46 1515.52 2870.02 1519.56 2870.73 1519.3 2876.27 1514.09 2880.02 1510.57 2883.08 1507.39 2883.08 1507.01 2883.08 1506.64 2879.89 1506.35 2876 1506.36 2870.67 1506.39 2869.73 1506.91 2872.19 1508.47M2849.86 1515.51C2836.2 1519.72 2835.15 1520.49 2835.15 1526.26 2835.15 1529.67 2835.88 1532.45 2836.78 1532.43 2840.33 1532.36 2868.66 1515.81 2869.49 1513.33 2870.68 1509.77 2867.2 1510.16 2849.86 1515.51M2526.97 1516.19C2517.07 1519.97 2509.28 1526.63 2504.88 1535.08 2492.44 1558.98 2521.9 1599.37 2568.2 1621.89 2593.53 1634.21 2612.14 1639.11 2633.78 1639.15 2654.97 1639.2 2669.71 1634.47 2678.09 1624.93 2687.88 1613.78 2686.97 1610.68 2675.23 1615.15 2670.79 1616.84 2662 1614.86 2630.97 1605.21 2585.66 1591.13 2574.1 1585.95 2570.89 1578.32 2569.61 1575.26 2564.72 1568.7 2560.04 1563.75 2546.44 1549.38 2547.84 1547.99 2586.26 1537.91 2604.52 1533.12 2619.46 1528.59 2619.46 1527.85 2619.47 1527.11 2611.38 1523.78 2601.49 1520.45 2579.15 1512.93 2541.22 1510.76 2526.97 1516.19M2618.38 1532.91C2587.22 1541.32 2561.41 1548.5 2561.01 1548.86 2560.61 1549.22 2567.48 1556.41 2576.26 1564.84L2592.24 1580.15 2632.07 1593.08 2671.91 1606.01 2706.68 1597.01C2725.81 1592.05 2741.46 1587.49 2741.46 1586.87 2741.47 1586.25 2726.52 1570.41 2708.25 1551.68L2675.02 1517.63 2618.38 1532.91M3326.01 1519.9C3319.29 1522.06 3319.18 1522.3 3322.45 1527.3 3326.95 1534.16 3328.23 1533.85 3332.52 1524.84 3336.45 1516.62 3336.38 1516.57 3326.01 1519.9M2714.03 1533.58C2712.46 1539.87 2716.18 1545.53 2721.9 1545.53 2727.08 1545.53 2728.83 1540.16 2725.81 1533.53 2722.57 1526.42 2715.83 1526.46 2714.03 1533.58M2717.87 1537.12C2718.27 1539.95 2719.57 1542.02 2720.77 1541.72 2723.99 1540.92 2723.42 1534.07 2720.05 1532.95 2718.05 1532.28 2717.37 1533.6 2717.87 1537.12M3259.54 1551.87C3258.64 1558 3258.72 1558.05 3272.92 1559.35 3280.78 1560.07 3289.42 1561.29 3292.11 1562.06 3296.61 1563.35 3297.02 1562.75 3297.02 1554.85L3297.02 1546.23 3278.73 1545.97 3260.45 1545.7 3259.54 1551.87M2489.79 1566.22C2485.34 1575.81 2473.59 1601.29 2463.67 1622.85 2453.75 1644.41 2427.73 1700.77 2405.84 1748.08 2344.43 1880.84 2348.5 1869.72 2354.79 1887.54 2364.13 1914.01 2398.58 1942.2 2438.84 1956.32 2458.05 1963.05 2492.88 1965.74 2507.99 1961.64 2526.75 1956.56 2527.47 1955.31 2591.92 1815.6 2624.79 1744.33 2657.14 1674.29 2663.8 1659.95 2670.46 1645.62 2675.62 1633.61 2675.27 1633.27 2674.92 1632.92 2671.66 1634.12 2668.02 1635.93 2655.69 1642.09 2637.49 1644.13 2619.03 1641.43 2564.43 1633.45 2512.57 1596.88 2500.69 1557.98L2497.89 1548.8 2489.79 1566.22M2556.29 1553.89C2556.29 1556.61 2589.51 1587.1 2590.93 1585.68 2592.21 1584.4 2575.5 1567.08 2564.46 1558.24 2559.97 1554.64 2556.29 1552.68 2556.29 1553.89M2586.87 1556.27C2582.64 1564.17 2589.38 1571.67 2600.73 1571.67 2606.61 1571.67 2610.84 1566.17 2609.12 1560.78 2606.27 1551.86 2590.9 1548.74 2586.87 1556.27M2588.97 1559.64C2588.97 1564.04 2598.43 1569.9 2602.82 1568.22 2608.64 1565.99 2607.13 1561.24 2600.98 1562.42 2597.31 1563.12 2595.12 1562.32 2594.21 1559.94 2592.52 1555.54 2588.97 1555.33 2588.97 1559.64M3259.43 1563.5C3257.46 1565 3255.27 1568.68 3254.55 1571.69 3253.28 1576.97 3253.56 1577.14 3262.66 1576.41 3270.59 1575.78 3273.04 1576.61 3278.07 1581.64L3284.06 1587.62 3290.62 1581.33C3300.23 1572.13 3298.56 1566.85 3285.03 1563.72 3270.33 1560.32 3263.67 1560.26 3259.43 1563.5M3307.91 1575.74C3307.91 1577.09 3310.11 1578.23 3312.81 1578.27 3318.41 1578.35 3323.55 1581.82 3326.81 1587.7 3328.73 1591.18 3329.23 1591.28 3330.35 1588.35 3331.07 1586.48 3329.99 1582.91 3327.95 1580.42 3323.83 1575.38 3307.91 1571.66 3307.91 1575.74M3258.89 1580.38C3254.62 1582.21 3254.63 1582.26 3259.12 1582.41 3265.58 1582.62 3275.07 1592.1 3276.63 1599.92 3278.06 1607.05 3281.12 1608.55 3283.2 1603.13 3285.17 1597.99 3277.66 1583.38 3271.64 1580.63 3265.53 1577.85 3264.82 1577.83 3258.89 1580.38M3303.47 1582.14C3298.27 1583.75 3292.66 1589.51 3292.67 1593.24 3292.68 1595.88 3295.13 1596.79 3302.92 1597.01 3311.1 1597.24 3314.15 1598.47 3318.15 1603.12 3320.91 1606.32 3323.16 1610.55 3323.16 1612.52 3323.16 1614.99 3323.86 1615.4 3325.42 1613.84 3328.6 1610.66 3325.63 1594.41 3320.74 1588.19 3316.64 1582.99 3309.2 1580.38 3303.47 1582.14M2593.32 1586.41C2593.32 1589.06 2667.24 1612.89 2668.61 1610.68 2670.11 1608.24 2666.01 1606.65 2626.56 1594.41 2592.38 1583.8 2593.32 1584.03 2593.32 1586.41M3249.52 1587.35C3245.17 1591.7 3246.57 1595.3 3252.9 1596.03 3258.84 1596.71 3258.9 1596.89 3260.08 1616.32 3260.73 1627.1 3262.57 1638.86 3264.16 1642.45L3267.05 1648.99 3270.31 1641.36C3274.86 1630.75 3276.33 1608.82 3273.14 1599.17 3269.44 1587.94 3255.77 1581.1 3249.52 1587.35M2730.58 1593.77C2726.38 1594.93 2711.23 1598.93 2696.91 1602.68 2682.59 1606.42 2671.9 1609.83 2673.16 1610.25 2674.41 1610.67 2689.47 1607.49 2706.61 1603.18 2729.07 1597.53 2738.2 1596.04 2739.32 1597.84 2740.38 1599.56 2741.3 1599.2 2742.26 1596.72 2744.7 1590.35 2743.78 1590.12 2730.58 1593.77M3236.01 1599.98C3236.01 1601.18 3239.45 1602.16 3243.64 1602.16 3247.83 1602.16 3251.26 1601.18 3251.26 1599.98 3251.26 1598.78 3247.83 1597.8 3243.64 1597.8 3239.45 1597.8 3236.01 1598.78 3236.01 1599.98M2726.22 1601.42C2724.42 1602.01 2721.59 1602.94 2719.93 1603.47 2717.52 1604.24 2717.69 1605.29 2720.81 1608.74 2726.05 1614.52 2729.37 1614.17 2732.4 1607.5 2733.8 1604.45 2734.93 1601.51 2734.93 1600.97 2734.93 1599.74 2730.56 1599.97 2726.22 1601.42M3302.06 1602.2C3310.25 1604.66 3314.54 1608.46 3317.96 1616.32 3320.54 1622.24 3320.82 1622.38 3320.89 1617.78 3321.02 1610.52 3309.71 1599.94 3302.08 1600.17L3295.93 1600.36 3302.06 1602.2M3231.28 1620.39C3230.61 1634.45 3230.88 1635.48 3235.74 1637.32 3238.58 1638.4 3244.22 1638.66 3248.26 1637.9L3255.62 1636.52 3255.62 1620.98 3255.62 1605.43 3243.8 1605.43 3231.98 1605.43 3231.28 1620.39M3291.17 1606.48C3280.47 1610.9 3278.5 1626.61 3287.51 1635.62 3299.77 1647.88 3318.61 1639.19 3315.9 1622.52 3313.76 1609.33 3302.29 1601.89 3291.17 1606.48M3252.61 1639.52C3250.28 1640.88 3244.06 1641.37 3238.18 1640.68L3227.86 1639.46 3226.49 1649.43C3224.07 1667.06 3224.78 1673.7 3229.33 1676.14 3234.42 1678.86 3255.53 1679.07 3259.68 1676.44 3264.52 1673.38 3263.14 1636.85 3258.2 1637.07 3257.38 1637.11 3254.87 1638.21 3252.61 1639.52M3227.3 1682.12C3227.3 1686.2 3234.79 1689.28 3244.73 1689.28 3254.67 1689.28 3262.16 1686.2 3262.16 1682.12 3262.16 1680.27 3256.95 1679.48 3244.73 1679.48 3232.51 1679.48 3227.3 1680.27 3227.3 1682.12M3231.66 1719.13 3231.66 1745.71 3239.61 1747.2C3247.59 1748.7 3258.94 1746.24 3258.2 1743.18 3257.98 1742.28 3257.8 1730.53 3257.8 1717.05L3257.8 1692.55 3244.73 1692.55 3231.66 1692.55 3231.66 1719.13M3262.7 1738.07C3260.17 1742.17 3269.2 1745.18 3291.97 1747.83 3318.47 1750.91 3323.16 1753.46 3323.16 1764.83 3323.16 1772 3322.63 1772.43 3301.92 1782.14 3290.24 1787.61 3278.1 1792.87 3274.96 1793.81 3268.33 1795.81 3199.33 1788.51 3196.31 1785.49 3195.22 1784.4 3194.64 1779.7 3195.02 1775.05 3195.68 1767 3196.46 1766.2 3211.5 1758.09 3225.6 1750.49 3227.3 1748.89 3227.3 1743.16L3227.3 1736.75 3211.5 1738.22C3162.42 1742.79 3125.25 1750.75 3103.6 1761.33 3079.07 1773.33 3078.2 1784.74 3100.94 1796.2 3156.96 1824.42 3322.76 1827.23 3401.29 1801.28 3421.65 1794.55 3430.51 1789.54 3435.49 1781.95 3438.89 1776.76 3438.89 1776.03 3435.49 1770.85 3427.64 1758.88 3406.18 1750.67 3363.8 1743.45 3335.64 1738.64 3264.68 1734.87 3262.7 1738.07M3244.26 1749.7C3231.04 1750.38 3229.21 1751.06 3225.16 1756.74 3220.18 1763.74 3219.89 1763.47 3235.7 1766.66 3243.84 1768.3 3263.81 1766.35 3268.51 1763.45 3270.98 1761.91 3270.58 1760.34 3266.31 1754.95 3263.43 1751.31 3260.58 1748.46 3259.98 1748.63 3259.38 1748.8 3252.31 1749.28 3244.26 1749.7M3266.51 1749.76C3266.51 1750.94 3267.98 1753.13 3269.78 1754.62 3271.58 1756.11 3273.05 1759.12 3273.05 1761.32 3273.05 1765.84 3262.26 1769.65 3248 1770.14 3241.41 1770.37 3243.02 1770.94 3254.56 1772.48 3269.78 1774.51 3269.92 1774.48 3288.87 1765.38 3299.34 1760.36 3307.91 1755.52 3307.91 1754.63 3307.91 1753.73 3300.8 1752.32 3292.11 1751.49 3283.43 1750.66 3274.11 1749.45 3271.42 1748.8 3268.72 1748.15 3266.51 1748.58 3266.51 1749.76M2372.69 1759.9C2358.58 1763.84 2346.54 1767.56 2345.92 1768.18 2344.73 1769.37 2378.02 1787.29 2381.44 1787.29 2382.56 1787.29 2384.74 1784.59 2386.29 1781.3 2392.62 1767.81 2399.34 1752.45 2398.86 1752.59 2398.57 1752.67 2386.8 1755.96 2372.69 1759.9M3294.84 1765.63C3285.85 1770.17 3277.52 1774.32 3276.32 1774.85 3275.12 1775.37 3274.77 1776.49 3275.55 1777.32 3276.92 1778.81 3316.62 1759.99 3316.62 1757.86 3316.62 1755.52 3310.43 1757.73 3294.84 1765.63M3212.59 1761.63C3205.56 1765.02 3206.56 1767.71 3214.77 1767.51 3218.67 1767.42 3220.68 1766.87 3219.25 1766.28 3217.82 1765.7 3217.19 1763.82 3217.85 1762.1 3219.24 1758.49 3219.13 1758.48 3212.59 1761.63M3295.38 1772.65C3282.56 1779.12 3277.41 1782.88 3277.41 1785.78 3277.41 1788 3278.22 1789.5 3279.22 1789.1 3302.44 1779.79 3318.8 1770.8 3318.8 1767.34 3318.8 1761.69 3315.75 1762.38 3295.38 1772.65M3201.71 1771.14C3203.34 1772.78 3245.31 1778.42 3256.53 1778.51 3271.44 1778.63 3263.97 1776.75 3235.6 1773.26 3205.62 1769.56 3199.76 1769.2 3201.71 1771.14M3202.7 1780.75C3203.33 1783.15 3204.46 1785.12 3205.22 1785.13 3205.98 1785.14 3218.33 1786.61 3232.66 1788.39 3264.68 1792.39 3262.16 1792.47 3262.16 1787.39 3262.16 1782.68 3260.46 1782.22 3229.53 1778.58 3202.94 1775.44 3201.35 1775.57 3202.7 1780.75M3268.15 1782.25C3261.97 1783.87 3263.33 1791.64 3269.78 1791.64 3274.14 1791.64 3275.23 1790.55 3275.23 1786.2 3275.23 1780.67 3274.9 1780.49 3268.15 1782.25M3431.65 1790.51C3408.61 1810.45 3323.94 1823.88 3236.01 1821.53 3167.74 1819.71 3117.88 1810.75 3093.86 1796 3083.94 1789.91 3083.51 1789.83 3083.51 1794.2 3083.51 1796.7 3086.98 1802.02 3091.22 1806.02 3123.46 1836.42 3295.98 1845.09 3388.52 1820.96 3414.54 1814.17 3432.24 1805.44 3436.05 1797.5 3440.68 1787.86 3438.58 1784.52 3431.65 1790.51M2183.75 1810.28C2150.79 1819.19 2110.11 1830.07 2093.33 1834.45 2076.56 1838.83 2062 1843.15 2060.98 1844.04 2059.96 1844.93 2061.77 1851.56 2065.01 1858.76L2070.89 1871.87 2080.91 1864.23C2105.06 1845.8 2209.36 1803.33 2241.18 1798.97 2246.74 1798.21 2251.28 1796.74 2251.28 1795.7 2251.28 1792.37 2244.7 1793.79 2183.75 1810.28M2062.29 1800.93C2054.64 1802.76 2053.03 1804.05 2053.03 1808.29 2053.03 1814.42 2053.62 1814.52 2061.28 1809.71 2079.23 1798.42 2079.42 1796.81 2062.29 1800.93M2228.41 1804.62C2169.4 1820.17 2065.68 1868.5 2076.7 1875.31 2081.02 1877.98 2144.53 1861.22 2144.53 1857.41 2144.53 1856.55 2142.57 1854.63 2140.17 1853.13 2137.78 1851.64 2135.82 1849.48 2135.82 1848.34 2135.82 1843.85 2146.15 1837.08 2162.7 1830.69 2182.67 1823 2190.28 1823.39 2190.28 1832.12 2190.28 1836.87 2190.99 1837.46 2195.18 1836.18 2211.85 1831.09 2248.21 1810.45 2251.57 1804.17 2254.26 1799.14 2248.76 1799.25 2228.41 1804.62M2263.37 1821.54C2244.98 1826.22 2176.44 1846.13 2175.5 1847.08 2171.31 1851.27 2182.16 1849.16 2224.77 1837.48 2251.21 1830.24 2273.39 1824.31 2274.05 1824.31 2274.71 1824.31 2275.25 1823.33 2275.25 1822.14 2275.25 1819.89 2270.77 1819.66 2263.37 1821.54M2157.67 1836.87C2148.72 1841.35 2141.02 1846.3 2140.55 1847.87 2140.03 1849.64 2144.61 1848.3 2152.47 1844.36 2159.49 1840.85 2169.15 1836.75 2173.94 1835.24 2185.56 1831.59 2188.44 1828.66 2180.37 1828.7 2176.84 1828.72 2166.62 1832.4 2157.67 1836.87M2222.96 1840.87C2177.07 1853.3 2180.94 1851.74 2183.65 1856.8 2185.37 1860.01 2185.09 1861.86 2182.5 1864.46 2180.62 1866.34 2178 1867.87 2176.69 1867.87 2175.38 1867.87 2174.78 1868.35 2175.36 1868.93 2177.19 1870.76 2212.7 1860.06 2224.05 1854.26 2243.16 1844.49 2265.49 1830.84 2262.14 1830.98 2260.36 1831.06 2242.73 1835.51 2222.96 1840.87M2044.32 1867.87C2044.32 1879.49 2045.2 1887.47 2046.49 1887.47 2047.79 1887.47 2048.67 1879.49 2048.67 1867.87 2048.67 1856.26 2047.79 1848.27 2046.49 1848.27 2045.2 1848.27 2044.32 1856.26 2044.32 1867.87M2156.51 1856.12C2142.04 1864.79 2135.82 1869.75 2135.82 1872.63 2135.82 1874.28 2165.82 1855.45 2171.66 1850.15 2176.53 1845.72 2168.73 1848.8 2156.51 1856.12M2252.4 1854.72C2250.74 1859.95 2254.66 1867.87 2258.91 1867.87 2263.46 1867.87 2266.32 1861.06 2264.17 1855.35 2261.88 1849.28 2254.25 1848.88 2252.4 1854.72M2171.22 1859.64C2166.99 1861.68 2164.39 1865.69 2167.3 1865.69 2170.08 1865.69 2179.39 1860.39 2179.39 1858.81 2179.39 1856.48 2177.35 1856.69 2171.22 1859.64M2148.08 1870.32C2142.43 1874.06 2138.32 1877.64 2138.96 1878.27 2139.59 1878.91 2146.41 1877.72 2154.11 1875.64 2167.9 1871.91 2168.05 1871.78 2163.95 1867.68 2161.66 1865.39 2159.46 1863.52 2159.06 1863.52 2158.67 1863.52 2153.73 1866.58 2148.08 1870.32M2580.56 1886.31C2586.11 1892.34 2592.2 1900.22 2594.08 1903.81 2596.58 1908.58 2597.53 1909.25 2597.59 1906.29 2597.64 1904.07 2591.56 1896.19 2584.07 1888.79 2574.76 1879.6 2573.65 1878.81 2580.56 1886.31M2560.8 1892.33C2557.12 1900.39 2554.11 1907.76 2554.11 1908.72 2554.11 1909.68 2560.45 1916.75 2568.19 1924.42L2582.26 1938.36 2587.77 1926.53C2590.8 1920.02 2593.29 1912.52 2593.3 1909.86 2593.32 1906.92 2588.25 1899.65 2580.41 1891.34L2567.49 1877.67 2560.8 1892.33M2567.92 1901.77C2567.2 1903.64 2567.73 1907.63 2569.1 1910.64 2572.16 1917.35 2578.87 1916.74 2579.88 1909.66 2581.15 1900.69 2570.92 1893.94 2567.92 1901.77M2541.03 1933.87 2531.23 1954.13 2555.76 1947.56 2580.28 1940.98 2566.71 1927.29C2559.25 1919.77 2552.62 1913.61 2551.98 1913.61 2551.34 1913.61 2546.41 1922.73 2541.03 1933.87" fill="#FFFFFF" fill-rule="evenodd"/></g></svg>