<svg width="2198" height="2199" xmlns="http://www.w3.org/2000/svg" xmlns:xlink="http://www.w3.org/1999/xlink" xml:space="preserve" overflow="hidden"><defs><clipPath id="clip0"><rect x="1441" y="138" width="2198" height="2199"/></clipPath></defs><g clip-path="url(#clip0)" transform="translate(-1441 -138)"><path d="M2508.23 936.855 2711.72 936.855C2969.3 936.855 3086.92 1093.19 3086.92 1277.87 3086.92 1391.26 3018.24 1618.89 2718.59 1618.89L2508.23 1618.89ZM2376.01 817.456 2376.01 1738.29 2734.9 1738.29C3037.98 1738.29 3222.58 1514.09 3222.58 1277.87 3222.58 1060.55 3073.19 817.456 2733.18 817.456ZM2049.74 817.456 2049.74 1737.43 2181.97 1737.43 2181.97 1233.2 2181.97 817.456ZM2115.85 539.145C2067.77 539.145 2029.14 577.8 2029.14 625.903 2029.14 673.147 2067.77 712.66 2115.85 712.66 2163.94 712.66 2202.57 673.147 2202.57 625.903 2202.57 578.659 2163.94 539.145 2115.85 539.145ZM2540 138C3147.03 138 3639 630.198 3639 1237.5 3639 1844.8 3147.03 2337 2540 2337 1932.97 2337 1441 1844.8 1441 1237.5 1441 630.198 1932.97 138 2540 138Z" fill-rule="evenodd"/></g></svg>