<svg width="2197" height="2198" xmlns="http://www.w3.org/2000/svg" xmlns:xlink="http://www.w3.org/1999/xlink" xml:space="preserve" overflow="hidden"><defs><clipPath id="clip0"><rect x="796" y="204" width="2197" height="2198"/></clipPath></defs><g clip-path="url(#clip0)" transform="translate(-796 -204)"><path d="M1831.25 205.097 1821.63 206.191 1787.26 209.15 1752.89 212.109 1711.64 219.045 1670.39 225.982 1627.48 236.749 1584.57 247.511 1544.99 260.887 1505.4 274.263 1479.77 284.621 1454.14 294.98 1408.28 317.642 1362.41 340.301 1326.2 362.328 1289.99 384.352 1257.83 407.292 1225.68 430.229 1190.93 458.979 1156.18 487.726 1117.5 526.42 1078.83 565.111 1051.48 598.11 1024.13 631.109 1002.66 660.61 981.174 690.111 957.768 727.982 934.359 765.854 910.395 813.977 886.427 862.1 875.885 888.224 865.342 914.348 851.967 953.933 838.592 993.518 827.829 1036.43 817.063 1079.34 810.14 1120.59 803.218 1161.84 799.611 1196.21 796 1230.59 796 1303.46 796 1376.33 799.611 1410.71 803.218 1445.08 810.14 1486.33 817.063 1527.58 827.857 1570.6 838.647 1613.62 853.474 1657.22 868.301 1700.82 881.117 1730.78 893.932 1760.73 912.721 1798.15 931.51 1835.56 953.467 1871.78 975.427 1907.99 998.366 1940.15 1021.3 1972.31 1050.05 2007.06 1078.8 2041.81 1117.49 2080.5 1156.18 2119.19 1190.93 2147.94 1225.68 2176.69 1257.83 2199.63 1289.99 2222.57 1325.45 2244.02 1360.91 2265.48 1398.79 2284.67 1436.66 2303.86 1466.91 2316.77 1497.15 2329.68 1537.03 2343.34 1576.9 2357 1623.65 2369 1670.39 2380.99 1711.64 2387.89 1752.89 2394.78 1787.26 2398.39 1821.63 2402 1894.5 2402 1967.37 2402 2001.74 2398.39 2036.11 2394.78 2076.68 2387.96 2117.25 2381.15 2156.13 2371.6 2195.01 2362.05 2237.36 2348.17 2279.7 2334.28 2313.09 2320.56 2346.48 2306.83 2389.28 2285.16 2432.09 2263.49 2469.96 2240.16 2507.83 2216.82 2537.33 2195.34 2566.83 2173.86 2599.82 2146.51 2632.82 2119.16 2671.51 2080.48 2710.2 2041.81 2738.95 2007.06 2767.7 1972.31 2790.63 1940.15 2813.57 1907.99 2835.03 1872.53 2856.48 1837.07 2875.67 1799.19 2894.87 1761.32 2907.78 1731.07 2920.7 1700.82 2935.53 1657.22 2950.35 1613.62 2961.14 1570.6 2971.94 1527.58 2978.86 1486.33 2985.78 1445.08 2989.39 1410.71 2993 1376.33 2993 1303.46 2993 1230.59 2989.39 1196.21 2985.78 1161.84 2978.86 1120.59 2971.94 1079.34 2961.17 1036.43 2950.41 993.518 2937.03 953.933 2923.66 914.348 2913.12 888.224 2902.57 862.1 2878.61 813.977 2854.64 765.854 2831.23 727.982 2807.83 690.111 2786.34 660.61 2764.87 631.109 2737.52 598.11 2710.17 565.111 2671.5 526.42 2632.82 487.726 2597.78 458.731 2562.74 429.739 2529.03 405.691 2495.33 381.643 2459.11 360.07 2422.89 338.497 2383.97 318.998 2345.05 299.501 2312.38 286.068 2279.7 272.637 2237.36 258.75 2195.01 244.863 2155.44 235.099 2115.86 225.334 2074.61 218.627 2033.36 211.917 2005.87 208.941 1978.37 205.966 1909.62 204.981 1840.88 204 1831.25 205.097M1361.6 709.176 1347.04 714.219 1336.85 722.361 1326.67 730.501 1317.92 743.393 1309.17 756.284 1306.19 770.694 1303.21 785.103 1303.94 1303.46 1304.67 1821.82 1310.88 1834.28 1317.08 1846.73 1325.41 1856.84 1333.74 1866.94 1352.14 1876 1370.55 1885.06 1883.21 1885.79 2395.87 1886.52 2411.86 1882.43 2427.84 1878.33 2438.44 1871.64 2449.04 1864.95 2456.51 1856.08 2463.97 1847.21 2470.03 1835.88 2476.08 1824.57 2476.81 1300.85 2477.53 777.126 2473.35 762.755 2469.17 748.384 2455.5 733.419 2441.82 718.457 2427.33 711.906 2412.84 705.356 1894.5 704.743 1376.16 704.132 1361.6 709.176M1548.15 904.977 1535.9 907.38 1521.47 914.439 1507.04 921.501 1494.73 935.193 1482.42 948.887 1477.47 963.242 1472.52 977.596 1472.74 997.473 1472.97 1017.35 1481.68 1035.05 1490.39 1052.75 1500.52 1061.64 1510.65 1070.54 1525.9 1077.69 1541.15 1084.84 1571.4 1084.84 1601.65 1084.84 1616.9 1077.69 1632.14 1070.54 1642.28 1061.64 1652.41 1052.75 1660.53 1035.8 1668.66 1018.84 1670.44 1004.66 1672.21 990.474 1667.76 973.034 1663.3 955.597 1656.21 944.853 1649.12 934.107 1641.88 927.378 1634.64 920.649 1622.16 914.307 1609.68 907.966 1593.47 904.968 1577.26 901.974 1568.83 902.276 1560.4 902.576 1548.15 904.977M2063.61 1149.28 2049.86 1151.54 2037.58 1154.89 2025.29 1158.25 2006.16 1167.89 1987.02 1177.52 1967.34 1197.18 1947.66 1216.84 1941.79 1225.09 1935.92 1233.34 1935.84 1196.9 1935.75 1160.46 1847.07 1160.47 1758.39 1160.47 1758.39 1426.52 1758.39 1692.57 1846.98 1693.3 1935.58 1694.02 1936.35 1526.93 1937.12 1359.83 1944.84 1344.11 1952.56 1328.39 1964.86 1315.73 1977.16 1303.08 1992.89 1295.71 2008.62 1288.33 2033.36 1288.45 2058.11 1288.57 2072.11 1295.84 2086.11 1303.11 2095.14 1313.39 2104.17 1323.68 2108.33 1333.51 2112.49 1343.33 2116.72 1357.08 2120.95 1370.83 2122.02 1532.39 2123.09 1693.94 2210.91 1693.94 2298.72 1693.94 2298.7 1525.51 2298.69 1357.08 2294.56 1329.58 2290.43 1302.08 2284.57 1284.21 2278.71 1266.34 2271.84 1252.59 2264.96 1238.84 2254.46 1223.35 2243.96 1207.86 2228.22 1193.83 2212.47 1179.79 2190.29 1168.85 2168.1 1157.9 2150.23 1153.69 2132.36 1149.48 2104.86 1148.25 2077.36 1147.03 2063.61 1149.28M1482.03 1427.24 1482.03 1694.02 1570.71 1693.3 1659.39 1692.57 1660.09 1426.52 1660.79 1160.46 1571.41 1160.46 1482.03 1160.46 1482.03 1427.24" fill="#040404" fill-rule="evenodd"/></g></svg>